<?xml version="1.0" encoding="UTF-8"?>
<svg version="1.1" xmlns="http://www.w3.org/2000/svg" width="500" height="500">
<path d="M0 0 C3.8966152 -0.00433922 7.79206317 -0.0406644 11.68847656 -0.07861328 C43.87618836 -0.22354623 75.07035119 5.63479733 105.69628906 15.37060547 C106.37288574 15.58072266 107.04948242 15.79083984 107.74658203 16.00732422 C112.10153269 17.36279106 116.40541233 18.82126809 120.69628906 20.37060547 C121.47101563 20.61681641 122.24574219 20.86302734 123.04394531 21.11669922 C126.05604116 22.35095505 127.51258957 23.98393309 128.88769531 26.87841797 C145.48264174 75.74471779 133.55548319 133.4141604 111.69628906 178.37060547 C105.1786895 191.33586214 97.15506336 203.22840599 88.10644531 214.56591797 C86.89721612 216.11346336 85.78569708 217.73649344 84.69628906 219.37060547 C84.03628906 219.37060547 83.37628906 219.37060547 82.69628906 219.37060547 C82.43307861 219.9576123 82.16986816 220.54461914 81.89868164 221.14941406 C79.79002804 225.0447502 76.50751469 227.89683493 73.38378906 230.99560547 C72.3061731 232.06584961 72.3061731 232.06584961 71.20678711 233.15771484 C54.40645315 249.59545166 28.71883272 268.21077632 4.46582031 270.58935547 C-15.3194713 269.69846054 -36.89602002 254.55677107 -51.69726562 242.65673828 C-53.19337454 241.45894166 -54.7201962 240.2997877 -56.24902344 239.14404297 C-56.92707031 238.55880859 -57.60511719 237.97357422 -58.30371094 237.37060547 C-58.30371094 236.71060547 -58.30371094 236.05060547 -58.30371094 235.37060547 C-58.86703125 235.13212891 -59.43035156 234.89365234 -60.01074219 234.64794922 C-90.02398028 217.92847928 -109.13163066 169.76101022 -118.42871094 138.43310547 C-119.88166597 133.14798154 -121.19680694 127.83596096 -122.42871094 122.49560547 C-122.58742676 121.82537354 -122.74614258 121.1551416 -122.90966797 120.46459961 C-125.8525357 107.2433563 -126.65519745 94.04075294 -126.61938477 80.54467773 C-126.61622636 78.07018804 -126.63979816 75.59690189 -126.66503906 73.12255859 C-126.7234791 58.19819076 -126.264868 37.85455958 -119.30371094 24.37060547 C-112.40791451 19.86020025 -104.11758019 17.84173122 -96.30371094 15.37060547 C-95.60785889 15.14894714 -94.91200684 14.92728882 -94.19506836 14.69891357 C-76.74760206 9.14749269 -59.40904171 5.13566935 -41.30371094 2.37060547 C-40.23024414 2.18965332 -39.15677734 2.00870117 -38.05078125 1.82226562 C-25.41913492 -0.07163356 -12.7507163 -0.00158158 0 0 Z M-17.30371094 74.37060547 C-18.05007812 74.79341797 -18.79644531 75.21623047 -19.56542969 75.65185547 C-26.956456 80.49473747 -32.44415393 89.14905708 -34.86230469 97.60498047 C-36.67938532 108.98987507 -36.4932996 120.31443427 -30.30371094 130.37060547 C-29.029206 131.78212615 -27.73759299 133.17840215 -26.42871094 134.55810547 C-23.04833563 138.65895247 -22.99993711 141.93673997 -23.47949219 147.01904297 C-23.53664902 147.76102432 -23.59380585 148.50300568 -23.6526947 149.26747131 C-24.4090053 158.59188448 -25.53477451 167.88233314 -26.6496582 177.16918945 C-27.65478219 185.59528971 -28.5676218 193.86586495 -28.30371094 202.37060547 C-6.8055195 207.80496547 16.55998623 208.90069382 37.69628906 201.37060547 C37.26479261 196.55754698 36.82687353 191.74510888 36.38378906 186.93310547 C36.31759369 186.21408051 36.25139832 185.49505554 36.18319702 184.75424194 C35.17217458 173.83820937 34.00391641 162.95291805 32.61108398 152.07788086 C32.49095947 151.12905029 32.37083496 150.18021973 32.24707031 149.20263672 C32.14048096 148.38512939 32.0338916 147.56762207 31.92407227 146.7253418 C31.26812176 139.94437433 31.26812176 139.94437433 33.05175781 137.55419922 C33.65632813 136.97798828 34.26089844 136.40177734 34.88378906 135.80810547 C42.36125095 127.83012382 45.11394404 117.18362026 44.96972656 106.46826172 C44.02160739 95.72742594 39.68524637 85.92749371 31.74707031 78.56201172 C17.69050632 67.48797997 -1.57287187 65.28489811 -17.30371094 74.37060547 Z " fill="#26A2C5" transform="translate(245.3037109375,69.62939453125)"/>
<path d="M0 0 C4.60595118 1.47527673 7.85978503 4.10853023 11.4375 7.25 C12.34894775 8.04627808 12.34894775 8.04627808 13.27880859 8.85864258 C25.08606467 19.29370403 35.12838813 29.96123522 43.79882812 43.17138672 C44.77719272 44.66080762 45.78310825 46.13210214 46.796875 47.59765625 C50.41130114 53.10674125 52.83457291 59.10715768 55.3125 65.1875 C55.66280273 66.04384033 56.01310547 66.90018066 56.37402344 67.7824707 C58.25629574 72.55922443 59.52227409 76.88348627 60 82 C60.66 82 61.32 82 62 82 C62.83833713 88.10788482 63.28885957 94.18290822 63.62109375 100.33984375 C63.74613281 101.21769531 63.87117187 102.09554687 64 103 C64.66 103.33 65.32 103.66 66 104 C65.67 104.66 65.34 105.32 65 106 C67.31 106.33 69.62 106.66 72 107 C72.144375 106.21625 72.28875 105.4325 72.4375 104.625 C73 102 73 102 74 100 C74.04254356 98.00045254 74.04080783 95.99958364 74 94 C74 93.01 74 92.02 74 91 C75.98 91 77.96 91 80 91 C80.07347656 90.11248047 80.07347656 90.11248047 80.1484375 89.20703125 C80.56456867 84.80895528 81.04965595 81.03071103 83 77 C82.34 76.67 81.68 76.34 81 76 C81.33 75.34 81.66 74.68 82 74 C82.039992 72.00039988 82.04346799 69.99952758 82 68 C82.639375 68.165 83.27875 68.33 83.9375 68.5 C86.9080332 69.22012926 86.81078366 69.06307211 90 68 C89.4319619 72.15416036 88.48578875 75.65215226 86.8125 79.4921875 C86.36567871 80.51924805 85.91885742 81.54630859 85.45849609 82.60449219 C84.97719238 83.68375977 84.49588867 84.76302734 84 85.875 C83.5045166 86.99036133 83.0090332 88.10572266 82.49853516 89.25488281 C74.98866836 105.92259488 65.8226243 120.89600264 54.41015625 135.1953125 C53.20092706 136.74285789 52.08940802 138.36588797 51 140 C50.34 140 49.68 140 49 140 C48.73678955 140.58700684 48.4735791 141.17401367 48.20239258 141.77880859 C46.09373897 145.67414474 42.81122563 148.52622946 39.6875 151.625 C38.60988403 152.69524414 38.60988403 152.69524414 37.51049805 153.78710938 C20.71016409 170.22484619 -4.97745635 188.84017085 -29.23046875 191.21875 C-40.20386078 190.72463854 -52.51715164 184.15173973 -62 179 C-61.34 178.67 -60.68 178.34 -60 178 C-60.20496094 177.41992188 -60.40992188 176.83984375 -60.62109375 176.2421875 C-60.89050781 175.46101562 -61.15992188 174.67984375 -61.4375 173.875 C-61.70433594 173.10929688 -61.97117188 172.34359375 -62.24609375 171.5546875 C-63.95317708 165.77006317 -64.21742337 160.0271987 -64.38671875 154.04296875 C-64.41224319 153.18173904 -64.43776764 152.32050934 -64.46406555 151.43318176 C-64.51593026 149.61022418 -64.56537371 147.7871963 -64.61254883 145.96411133 C-64.6862438 143.23403656 -64.77739001 140.50490958 -64.86914062 137.77539062 C-65.15535768 127.90830147 -64.86359252 118.46365558 -63.44848633 108.68798828 C-62.87466052 103.96930964 -62.9307513 99.37760097 -63.125 94.63671875 C-62.99419158 91.87747855 -62.42172427 90.33806999 -61 88 C-61.66 88 -62.32 88 -63 88 C-63 86.68 -63 85.36 -63 84 C-62.01 83.505 -62.01 83.505 -61 83 C-60.60235737 81.01178687 -60.27571139 79.00875442 -60 77 C-59.68325425 75.66262906 -59.35729936 74.32711192 -59 73 C-59.66 73 -60.32 73 -61 73 C-60.649375 72.319375 -60.29875 71.63875 -59.9375 70.9375 C-58.77399047 67.29183682 -59.36632462 64.73164388 -60 61 C-59.67 60.34 -59.34 59.68 -59 59 C-59.99 59 -60.98 59 -62 59 C-62.66666667 56.33333333 -63.33333333 53.66666667 -64 51 C-56.06438808 58.72113592 -56.06438808 58.72113592 -55.83569336 63.26342773 C-55.94018799 64.57770752 -56.04468262 65.8919873 -56.15234375 67.24609375 C-56.2080101 67.98041122 -56.26367645 68.7147287 -56.32102966 69.47129822 C-57.16710415 80.02255632 -58.38234944 90.54462367 -59.5625 101.0625 C-59.79922395 103.2011281 -60.03555458 105.33979977 -60.27148438 107.47851562 C-60.843135 112.65285598 -61.4200634 117.82658206 -62 123 C-39.63435972 126.11873379 -19.09613557 127.75369832 3 122 C2.56850355 117.18694152 2.13058447 112.37450341 1.6875 107.5625 C1.62130463 106.84347504 1.55510925 106.12445007 1.48690796 105.38363647 C0.47588552 94.4676039 -0.69237266 83.58231258 -2.08520508 72.70727539 C-2.20532959 71.75844482 -2.3254541 70.80961426 -2.44921875 69.83203125 C-2.60910278 68.60577026 -2.60910278 68.60577026 -2.7722168 67.35473633 C-3.4281673 60.57376887 -3.4281673 60.57376887 -1.64453125 58.18359375 C-0.73767578 57.31927734 -0.73767578 57.31927734 0.1875 56.4375 C7.66795983 48.45631973 10.40733159 37.81833771 10.27734375 27.1015625 C9.4929772 18.32991399 6.42668011 10.71777371 1.171875 3.70703125 C0 2 0 2 0 0 Z " fill="#0B5C98" transform="translate(279,149)"/>
<path d="M0 0 C7.93561192 7.72113592 7.93561192 7.72113592 8.16430664 12.26342773 C8.05981201 13.57770752 7.95531738 14.8919873 7.84765625 16.24609375 C7.76415672 17.34756996 7.76415672 17.34756996 7.67897034 18.47129822 C6.83289585 29.02255632 5.61765056 39.54462367 4.4375 50.0625 C4.20077605 52.2011281 3.96444542 54.33979977 3.72851562 56.47851562 C3.156865 61.65285598 2.5799366 66.82658206 2 72 C21.62458177 74.73651215 39.38001143 75.97823697 59 73 C62.32986758 72.62451307 65.6624064 72.29842013 69 72 C70.14547412 79.37168024 70.21933825 86.67419379 70.25 94.125 C70.270625 95.35476563 70.29125 96.58453125 70.3125 97.8515625 C70.35606619 108.22031624 70.1528952 121.82526263 63 130 C54.18627809 135.25753223 41.10321634 141.64666089 30.5703125 139.7421875 C20.63887991 136.87444861 11.08088594 132.93336592 2 128 C2.99 127.505 2.99 127.505 4 127 C3.79503906 126.41992188 3.59007812 125.83984375 3.37890625 125.2421875 C3.10949219 124.46101563 2.84007812 123.67984375 2.5625 122.875 C2.29566406 122.10929687 2.02882812 121.34359375 1.75390625 120.5546875 C0.04682292 114.77006317 -0.21742337 109.0271987 -0.38671875 103.04296875 C-0.41224319 102.18173904 -0.43776764 101.32050934 -0.46406555 100.43318176 C-0.51593026 98.61022418 -0.56537371 96.7871963 -0.61254883 94.96411133 C-0.6862438 92.23403656 -0.77739001 89.50490958 -0.86914062 86.77539062 C-1.15535768 76.90830147 -0.86359252 67.46365558 0.55151367 57.68798828 C1.12533948 52.96930964 1.0692487 48.37760097 0.875 43.63671875 C1.00580842 40.87747855 1.57827573 39.33806999 3 37 C2.34 37 1.68 37 1 37 C1 35.68 1 34.36 1 33 C1.99 32.505 1.99 32.505 3 32 C3.39764263 30.01178687 3.72428861 28.00875442 4 26 C4.31674575 24.66262906 4.64270064 23.32711192 5 22 C4.34 22 3.68 22 3 22 C3.5259375 20.9790625 3.5259375 20.9790625 4.0625 19.9375 C5.22600953 16.29183682 4.63367538 13.73164388 4 10 C4.33 9.34 4.66 8.68 5 8 C4.01 8 3.02 8 2 8 C1.33333333 5.33333333 0.66666667 2.66666667 0 0 Z " fill="#013780" transform="translate(215,200)"/>
<path d="M0 0 C1.65322266 0.01740234 1.65322266 0.01740234 3.33984375 0.03515625 C4.44457031 0.04417969 5.54929687 0.05320312 6.6875 0.0625 C7.54214844 0.07410156 8.39679688 0.08570313 9.27734375 0.09765625 C12.81540529 8.49198408 15.76282569 17.08039219 18.70605469 25.69580078 C19.53552322 28.12157707 20.37105824 30.54520863 21.20703125 32.96875 C21.73603963 34.51159449 22.26469856 36.05455885 22.79296875 37.59765625 C23.16787445 38.68348999 23.16787445 38.68348999 23.550354 39.79125977 C25.27734375 44.86803125 25.27734375 44.86803125 25.27734375 47.09765625 C21.64734375 47.09765625 18.01734375 47.09765625 14.27734375 47.09765625 C13.28734375 44.12765625 12.29734375 41.15765625 11.27734375 38.09765625 C5.66734375 37.76765625 0.05734375 37.43765625 -5.72265625 37.09765625 C-6.03203125 38.56203125 -6.34140625 40.02640625 -6.66015625 41.53515625 C-7.59765625 45.97265625 -7.59765625 45.97265625 -8.72265625 47.09765625 C-12.05593467 47.24010405 -15.38719518 47.13987728 -18.72265625 47.09765625 C-16.45903757 38.01560698 -13.4758447 29.20855274 -10.42431641 20.36914062 C-9.58789379 17.94435492 -8.75847428 15.51724865 -7.9296875 13.08984375 C-7.40014903 11.5480364 -6.87021604 10.00636447 -6.33984375 8.46484375 C-6.09193085 7.73893036 -5.84401794 7.01301697 -5.58859253 6.2651062 C-3.46058286 0.12412421 -3.46058286 0.12412421 0 0 Z M2.27734375 12.09765625 C1.57688919 14.00962664 0.89242475 15.9274606 0.21484375 17.84765625 C-0.16800781 18.915 -0.55085938 19.98234375 -0.9453125 21.08203125 C-2.02007018 24.25955156 -2.02007018 24.25955156 -0.72265625 28.09765625 C2.24734375 28.09765625 5.21734375 28.09765625 8.27734375 28.09765625 C6.80700391 19.3804695 6.80700391 19.3804695 2.27734375 12.09765625 Z " fill="#0EBFDE" transform="translate(280.72265625,356.90234375)"/>
<path d="M0 0 C3.6654183 -1.03305109 6.37714855 -1.27776918 10 0 C13.94889319 4.2842436 16.44576477 9.81749373 19 15 C21.78890988 11.7067128 23.75457242 8.56031784 25.625 4.6875 C27.140625 2.05078125 27.140625 2.05078125 29 0 C32.47605042 -0.85860527 35.49607566 -0.62322765 39 0 C39.495 0.99 39.495 0.99 40 2 C39.22729492 3.63232422 39.22729492 3.63232422 37.98046875 5.5546875 C37.53509766 6.25207031 37.08972656 6.94945312 36.63085938 7.66796875 C36.15455078 8.39628906 35.67824219 9.12460937 35.1875 9.875 C34.26277598 11.30889939 33.33954994 12.74376616 32.41796875 14.1796875 C32.00313232 14.81632324 31.5882959 15.45295898 31.16088867 16.10888672 C30.77779541 16.7329541 30.39470215 17.35702148 30 18 C29.59950439 18.63566895 29.19900879 19.27133789 28.78637695 19.92626953 C27.73376614 22.70207711 28.12984032 24.18431509 29 27 C30.11809243 29.31811124 30.11809243 29.31811124 31.5390625 31.57421875 C32.03664063 32.40630859 32.53421875 33.23839844 33.046875 34.09570312 C34.10627695 35.83558727 35.16617965 37.57516662 36.2265625 39.31445312 C36.7215625 40.14267578 37.2165625 40.97089844 37.7265625 41.82421875 C38.18627441 42.57791748 38.64598633 43.33161621 39.11962891 44.1081543 C39.41015137 44.73246338 39.70067383 45.35677246 40 46 C39.505 46.99 39.505 46.99 39 48 C31.84848485 48.60606061 31.84848485 48.60606061 28.375 46.125 C20 35.10526316 20 35.10526316 20 31 C19.34 31 18.68 31 18 31 C17.731875 31.71800781 17.46375 32.43601562 17.1875 33.17578125 C15.99151863 36.02017115 14.59642689 38.54940456 13 41.1875 C12.484375 42.04730469 11.96875 42.90710938 11.4375 43.79296875 C10 46 10 46 8 48 C5.31160615 48.26991906 2.70858064 48.08737357 0 48 C-1 45 -1 45 0.00390625 42.94140625 C0.51824219 42.15636719 1.03257812 41.37132812 1.5625 40.5625 C2.09875 39.6653125 2.635 38.768125 3.1875 37.84375 C5 35 5 35 7.125 32.34375 C9.44004801 29.02053592 10.55107665 27.05808925 11 23 C8.80561193 16.79234605 4.90773521 11.33191471 1.10498047 6.0078125 C0 4 0 4 0 0 Z " fill="#08387B" transform="translate(416,357)"/>
<path d="M0 0 C0 4.67590167 -0.88002198 5.69649386 -4 9 C-4.66 9 -5.32 9 -6 9 C-6 8.34 -6 7.68 -6 7 C-9.12354971 6.08259379 -11.93686438 5.86539694 -15.1875 5.875 C-16.06792969 5.87242187 -16.94835937 5.86984375 -17.85546875 5.8671875 C-19.98203191 5.76134967 -19.98203191 5.76134967 -21 7 C-21.04063832 8.66617115 -21.042721 10.33388095 -21 12 C-19.24623047 12.45439453 -19.24623047 12.45439453 -17.45703125 12.91796875 C-15.90861353 13.34026449 -14.36044944 13.76349096 -12.8125 14.1875 C-12.04357422 14.38408203 -11.27464844 14.58066406 -10.48242188 14.78320312 C-5.42108415 16.19516429 -2.38143159 17.7651287 1 22 C3.2684772 26.22761661 3.26067776 30.18754717 2 34.75 C0.33657538 39.05708162 -1.82719044 40.91359522 -6 43 C-12.43473523 45.14491174 -19.72802852 44.89630221 -26 42.3125 C-29.57894189 40.5002953 -31.81385474 38.42179258 -34 35 C-30.38671875 30.3125 -30.38671875 30.3125 -29 29 C-26 29 -26 29 -23.9375 30.9375 C-22.9784375 31.9584375 -22.9784375 31.9584375 -22 33 C-19.49860398 34.25069801 -17.72607309 34.13302467 -14.9375 34.125 C-14.03902344 34.12757813 -13.14054687 34.13015625 -12.21484375 34.1328125 C-10.02621107 34.24738223 -10.02621107 34.24738223 -9 33 C-8.95919217 31.00041636 -8.95745644 28.99954746 -9 27 C-10.01320313 26.68546875 -11.02640625 26.3709375 -12.0703125 26.046875 C-13.42203235 25.6150756 -14.77358614 25.18275612 -16.125 24.75 C-16.79015625 24.54503906 -17.4553125 24.34007812 -18.140625 24.12890625 C-23.23206518 22.4816756 -28.21655678 20.60815685 -31.3515625 16.0234375 C-32.97382212 10.96120567 -32.6554315 6.41573204 -30.4375 1.625 C-22.41508448 -7.0145244 -9.36857058 -5.87831879 0 0 Z " fill="#FDFDFD" transform="translate(79,361)"/>
<path d="M0 0 C3.3 0 6.6 0 10 0 C10.33 5.28 10.66 10.56 11 16 C12.98 15.01 14.96 14.02 17 13 C21.989034 12.47483853 25.05581962 12.82274358 29 16 C31.91624211 19.95459107 32.35966905 22.74415943 32.29296875 27.61328125 C32.2784668 29.4840332 32.2784668 29.4840332 32.26367188 31.39257812 C32.23853516 32.68615234 32.21339844 33.97972656 32.1875 35.3125 C32.16719727 37.28186523 32.16719727 37.28186523 32.14648438 39.29101562 C32.11117443 42.52776077 32.0618528 45.76367105 32 49 C29.03 49 26.06 49 23 49 C22.97494385 48.35450195 22.9498877 47.70900391 22.92407227 47.04394531 C22.80785567 44.11244106 22.68524558 41.18123783 22.5625 38.25 C22.52318359 37.23421875 22.48386719 36.2184375 22.44335938 35.171875 C22.40146484 34.1921875 22.35957031 33.2125 22.31640625 32.203125 C22.27974854 31.30239258 22.24309082 30.40166016 22.20532227 29.47363281 C22.01693593 27.20403661 21.62633499 25.18437113 21 23 C18.18263828 22.21739952 16.54030762 21.80488891 13.75 22.8125 C11.84925076 23.89399368 11.84925076 23.89399368 11 26 C10.84733388 27.73868744 10.75067404 29.48247501 10.68359375 31.2265625 C10.64169922 32.2578125 10.59980469 33.2890625 10.55664062 34.3515625 C10.51732422 35.43179688 10.47800781 36.51203125 10.4375 37.625 C10.39431641 38.71296875 10.35113281 39.8009375 10.30664062 40.921875 C10.20035573 43.6144257 10.09965496 46.30719576 10 49 C6.7 49 3.4 49 0 49 C0 32.83 0 16.66 0 0 Z " fill="#FDFDFD" transform="translate(378,355)"/>
<path d="M0 0 C3.8966152 -0.00433922 7.79206317 -0.0406644 11.68847656 -0.07861328 C46.31120062 -0.23451046 81.29611175 5.96126603 113.69628906 18.37060547 C113.69628906 18.70060547 113.69628906 19.03060547 113.69628906 19.37060547 C108.15971612 19.79649569 103.79962924 18.27585247 98.69628906 16.37060547 C98.69628906 17.03060547 98.69628906 17.69060547 98.69628906 18.37060547 C94.60752919 18.55645819 92.29919519 18.17205853 88.69628906 16.37060547 C86.49881776 16.66865554 86.49881776 16.66865554 84.69628906 17.37060547 C84.36628906 15.39060547 84.03628906 13.41060547 83.69628906 11.37060547 C78.10548764 10.52671091 72.76778505 10.30552234 67.11425781 10.43310547 C64.69628906 10.37060547 64.69628906 10.37060547 61.69628906 9.37060547 C60.70628906 9.37060547 59.71628906 9.37060547 58.69628906 9.37060547 C56.6922368 8.71622106 54.6920023 8.04999721 52.69628906 7.37060547 C52.03628906 7.37060547 51.37628906 7.37060547 50.69628906 7.37060547 C50.36628906 8.03060547 50.03628906 8.69060547 49.69628906 9.37060547 C47.71628906 8.38060547 47.71628906 8.38060547 45.69628906 7.37060547 C45.69628906 6.71060547 45.69628906 6.05060547 45.69628906 5.37060547 C44.70628906 5.04060547 43.71628906 4.71060547 42.69628906 4.37060547 C42.03628906 4.70060547 41.37628906 5.03060547 40.69628906 5.37060547 C40.69628906 4.71060547 40.69628906 4.05060547 40.69628906 3.37060547 C39.82746094 3.38220703 38.95863281 3.39380859 38.06347656 3.40576172 C36.91105469 3.41478516 35.75863281 3.42380859 34.57128906 3.43310547 C33.43433594 3.44470703 32.29738281 3.45630859 31.12597656 3.46826172 C27.69628906 3.37060547 27.69628906 3.37060547 24.99755859 2.875 C21.13394958 2.28468672 17.34412941 2.2085169 13.44628906 2.20263672 C12.66995117 2.19930832 11.89361328 2.19597992 11.09375 2.19255066 C9.45996692 2.18751078 7.82617365 2.18514142 6.19238281 2.18530273 C3.70392858 2.18311219 1.21591528 2.16491444 -1.27246094 2.14599609 C-2.86620943 2.14306229 -4.45996002 2.14107741 -6.05371094 2.14013672 C-7.16020996 2.12935844 -7.16020996 2.12935844 -8.2890625 2.11836243 C-12.70651856 2.13775227 -16.17371182 2.86647907 -20.30371094 4.37060547 C-22.45361328 4.59765625 -22.45361328 4.59765625 -24.38964844 4.56591797 C-25.0921875 4.55947266 -25.79472656 4.55302734 -26.51855469 4.54638672 C-27.58783203 4.52125 -27.58783203 4.52125 -28.67871094 4.49560547 C-29.78279297 4.48207031 -29.78279297 4.48207031 -30.90917969 4.46826172 C-32.70749974 4.44490691 -34.50565005 4.40904383 -36.30371094 4.37060547 C-36.63371094 5.69060547 -36.96371094 7.01060547 -37.30371094 8.37060547 C-38.62371094 8.37060547 -39.94371094 8.37060547 -41.30371094 8.37060547 C-41.63371094 9.03060547 -41.96371094 9.69060547 -42.30371094 10.37060547 C-43.29371094 9.38060547 -43.29371094 9.38060547 -44.30371094 8.37060547 C-45.29371094 9.03060547 -46.28371094 9.69060547 -47.30371094 10.37060547 C-49.30917783 10.07191891 -51.30948299 9.73689224 -53.30371094 9.37060547 C-55.58021838 9.72836687 -55.58021838 9.72836687 -57.30371094 10.37060547 C-57.30371094 9.71060547 -57.30371094 9.05060547 -57.30371094 8.37060547 C-57.94308594 8.67998047 -58.58246094 8.98935547 -59.24121094 9.30810547 C-62.57415012 10.46443131 -65.58339128 10.82468089 -69.07714844 11.15185547 C-71.84473738 11.42375894 -74.56742142 11.87947658 -77.30371094 12.37060547 C-78.31482186 15.41973775 -78.31482186 15.41973775 -77.30371094 18.37060547 C-77.88121094 18.18498047 -78.45871094 17.99935547 -79.05371094 17.80810547 C-81.51063618 17.33037 -82.94768628 17.61331183 -85.30371094 18.37060547 C-85.30371094 17.71060547 -85.30371094 17.05060547 -85.30371094 16.37060547 C-86.16416016 16.59103516 -86.16416016 16.59103516 -87.04199219 16.81591797 C-88.49129359 17.17135976 -89.94706598 17.50190242 -91.40917969 17.80029297 C-93.39757843 18.225579 -95.35347477 18.79512594 -97.30371094 19.37060547 C-97.63371094 20.36060547 -97.96371094 21.35060547 -98.30371094 22.37060547 C-98.96371094 22.70060547 -99.62371094 23.03060547 -100.30371094 23.37060547 C-100.63371094 24.36060547 -100.96371094 25.35060547 -101.30371094 26.37060547 C-102.06683594 26.20560547 -102.82996094 26.04060547 -103.61621094 25.87060547 C-106.3396733 25.27915151 -106.3396733 25.27915151 -109.30371094 25.37060547 C-110.6435258 25.06436207 -111.97882981 24.73608992 -113.30371094 24.37060547 C-113.63371094 25.03060547 -113.96371094 25.69060547 -114.30371094 26.37060547 C-114.96371094 26.04060547 -115.62371094 25.71060547 -116.30371094 25.37060547 C-116.8353155 27.78535164 -117.35425859 30.20168654 -117.86621094 32.62060547 C-118.01767578 33.30251953 -118.16914062 33.98443359 -118.32519531 34.68701172 C-119.07376275 38.27317202 -119.40961663 40.87399188 -118.30371094 44.37060547 C-119.24121094 46.99560547 -119.24121094 46.99560547 -120.30371094 49.37060547 C-120.47520952 51.57068715 -120.47520952 51.57068715 -118.80371094 53.87060547 C-117.30371094 56.37060547 -117.30371094 56.37060547 -117.30371094 58.37060547 C-119.28371094 57.71060547 -121.26371094 57.05060547 -123.30371094 56.37060547 C-123.63371094 57.03060547 -123.96371094 57.69060547 -124.30371094 58.37060547 C-124.10515102 49.14749749 -123.85121775 39.94848555 -121.74121094 30.93310547 C-121.47179687 29.75876953 -121.20238281 28.58443359 -120.92480469 27.37451172 C-116.72289081 19.58831467 -104.30611909 17.9013564 -96.30371094 15.37060547 C-95.60785889 15.14894714 -94.91200684 14.92728882 -94.19506836 14.69891357 C-76.74760206 9.14749269 -59.40904171 5.13566935 -41.30371094 2.37060547 C-40.23024414 2.18965332 -39.15677734 2.00870117 -38.05078125 1.82226562 C-25.41913492 -0.07163356 -12.7507163 -0.00158158 0 0 Z " fill="#4EDCE2" transform="translate(245.3037109375,69.62939453125)"/>
<path d="M0 0 C2.40701587 1.86263534 3.47633559 3.60441007 4.76171875 6.36328125 C5.14233474 10.40796051 4.89604213 14.2888054 4.76171875 18.36328125 C-2.49828125 18.69328125 -9.75828125 19.02328125 -17.23828125 19.36328125 C-16.90828125 21.01328125 -16.57828125 22.66328125 -16.23828125 24.36328125 C-10.70739237 25.59526435 -10.70739237 25.59526435 -5.3046875 24.5390625 C-3.48745078 23.33790841 -3.48745078 23.33790841 -1.23828125 21.36328125 C0.74171875 22.68328125 2.72171875 24.00328125 4.76171875 25.36328125 C3.84823407 29.01721997 2.82408046 30.31418799 -0.17578125 32.67578125 C-5.65049679 35.47016731 -11.74913625 35.34605709 -17.58203125 33.703125 C-21.87190626 31.85431693 -24.52296885 29.57363104 -26.5546875 25.34765625 C-28.72262601 19.05444047 -28.97374368 12.50870369 -26.23828125 6.36328125 C-23.82074442 2.56108711 -21.41110468 -0.05030703 -17.36328125 -2.07421875 C-10.55967411 -3.29886803 -6.14360724 -3.02818775 0 0 Z M-17.23828125 8.36328125 C-17.23828125 9.35328125 -17.23828125 10.34328125 -17.23828125 11.36328125 C-12.94828125 11.36328125 -8.65828125 11.36328125 -4.23828125 11.36328125 C-4.86670098 7.39186435 -4.86670098 7.39186435 -7.23828125 5.36328125 C-11.58196179 4.89114206 -14.14524943 5.15128666 -17.23828125 8.36328125 Z " fill="#FCFCFC" transform="translate(254.23828125,370.63671875)"/>
<path d="M0 0 C3.98561154 2.62688033 6.23980531 5.28191592 7.75 9.8125 C7.75 13.1125 7.75 16.4125 7.75 19.8125 C0.16 19.8125 -7.43 19.8125 -15.25 19.8125 C-13.09289669 25.63163625 -13.09289669 25.63163625 -10.34765625 26.7578125 C-5.71106969 27.2196754 -5.71106969 27.2196754 -1.75 24.875 C-1.255 24.194375 -0.76 23.51375 -0.25 22.8125 C3.12503669 23.9983237 5.39722731 25.08823689 7.75 27.8125 C1.80880579 35.40402593 1.80880579 35.40402593 -3.765625 36.1484375 C-10.08971778 36.23878168 -15.12122904 35.75584748 -20.25 31.8125 C-25.08888978 25.85694335 -25.94609536 20.29236105 -25.25 12.8125 C-23.6007951 7.60448453 -21.49406064 4.26696796 -17.25 0.8125 C-11.51245314 -1.86502187 -5.90705169 -2.15834581 0 0 Z M-13.6875 9.25 C-15.3367679 11.4545824 -15.3367679 11.4545824 -15.25 12.8125 C-10.63 12.8125 -6.01 12.8125 -1.25 12.8125 C-2.70288986 8.2283037 -2.70288986 8.2283037 -4.25 6.8125 C-9.56203422 6.17318049 -9.56203422 6.17318049 -13.6875 9.25 Z " fill="#FDFDFD" transform="translate(111.25,369.1875)"/>
<path d="M0 0 C3.3 0 6.6 0 10 0 C10.33 8.91 10.66 17.82 11 27 C16.66279164 27.57936794 16.66279164 27.57936794 19.33691406 25.33886719 C21.32914469 22.53711009 21.53352659 20.99130364 21.609375 17.578125 C21.64160156 16.55332031 21.67382812 15.52851563 21.70703125 14.47265625 C21.72121094 13.40917969 21.73539062 12.34570312 21.75 11.25 C21.77964844 10.17105469 21.80929687 9.09210938 21.83984375 7.98046875 C21.91045671 5.32071405 21.95750236 2.66035246 22 0 C25.3 0 28.6 0 32 0 C32 11.55 32 23.1 32 35 C29.03 35 26.06 35 23 35 C22.67 34.01 22.34 33.02 22 32 C21.360625 32.66 20.72125 33.32 20.0625 34 C15.94690209 36.68773741 12.78875011 36.70525229 8 36 C4.46285948 34.61590154 3.3275015 33.55001235 1.38549805 30.28857422 C-0.11641926 26.72367094 -0.34790468 24.35332734 -0.29296875 20.5078125 C-0.28330078 19.30898438 -0.27363281 18.11015625 -0.26367188 16.875 C-0.23853516 15.6375 -0.21339844 14.4 -0.1875 13.125 C-0.17396484 11.86429687 -0.16042969 10.60359375 -0.14648438 9.3046875 C-0.11123435 6.20268546 -0.06195504 3.10156466 0 0 Z " fill="#FCFCFC" transform="translate(310,369)"/>
<path d="M0 0 C3.3 0 6.6 0 10 0 C10.33 8.91 10.66 17.82 11 27 C16.66279164 27.57936794 16.66279164 27.57936794 19.33691406 25.33886719 C21.32914469 22.53711009 21.53352659 20.99130364 21.609375 17.578125 C21.64160156 16.55332031 21.67382812 15.52851563 21.70703125 14.47265625 C21.72121094 13.40917969 21.73539063 12.34570312 21.75 11.25 C21.77964844 10.17105469 21.80929688 9.09210938 21.83984375 7.98046875 C21.91045671 5.32071405 21.95750236 2.66035246 22 0 C25.3 0 28.6 0 32 0 C32 11.55 32 23.1 32 35 C29.03 35 26.06 35 23 35 C22.67 34.01 22.34 33.02 22 32 C21.360625 32.66 20.72125 33.32 20.0625 34 C15.94690209 36.68773741 12.78875011 36.70525229 8 36 C4.46285948 34.61590154 3.3275015 33.55001235 1.38549805 30.28857422 C-0.11641926 26.72367094 -0.34790468 24.35332734 -0.29296875 20.5078125 C-0.28330078 19.30898438 -0.27363281 18.11015625 -0.26367188 16.875 C-0.23853516 15.6375 -0.21339844 14.4 -0.1875 13.125 C-0.17396484 11.86429687 -0.16042969 10.60359375 -0.14648438 9.3046875 C-0.11123435 6.20268546 -0.06195504 3.10156466 0 0 Z " fill="#FDFDFD" transform="translate(161,369)"/>
<path d="M0 0 C1.22783203 0.98033203 1.22783203 0.98033203 2.48046875 1.98046875 C4.82544232 3.82266742 7.25732612 5.28275774 9.8125 6.8125 C12.625 9.375 12.625 9.375 14.8125 11.8125 C14.8125 12.4725 14.8125 13.1325 14.8125 13.8125 C15.3590625 14.03550781 15.905625 14.25851563 16.46875 14.48828125 C19.53229723 16.21918544 21.85770002 18.51896552 24.3125 21 C24.80226318 21.49032715 25.29202637 21.9806543 25.79663086 22.48583984 C29.25305849 26.03134165 31.61423307 29.41596614 33.8125 33.8125 C34.4725 34.1425 35.1325 34.4725 35.8125 34.8125 C35.4825 35.4725 35.1525 36.1325 34.8125 36.8125 C31.52518312 35.71672771 30.93246244 35.03445399 28.8125 32.4375 C22.13601846 24.61568063 14.98943037 17.49668206 6.875 11.1875 C6.33149902 10.76162598 5.78799805 10.33575195 5.22802734 9.89697266 C2.43526433 7.78435311 0.21406928 6.53446572 -3.1875 5.8125 C-4.77524493 4.89659878 -6.33628568 3.93357594 -7.875 2.9375 C-18.22260638 -3.29202859 -28.20259087 -4.66972302 -40.1875 -3.1875 C-46.91637814 -1.35829041 -52.53913632 1.81731593 -58.1875 5.8125 C-58.96222656 6.09996094 -59.73695313 6.38742188 -60.53515625 6.68359375 C-65.79662626 8.92301177 -69.90824295 13.08771581 -74.1875 16.8125 C-74.99429199 17.51439453 -74.99429199 17.51439453 -75.81738281 18.23046875 C-82.67601594 24.25347088 -88.81086127 30.37876279 -94.3828125 37.6328125 C-96.1875 39.8125 -96.1875 39.8125 -99.1875 41.8125 C-98.67645394 37.30231573 -97.04211691 34.98498365 -94.125 31.5625 C-93.3103125 30.6034375 -92.495625 29.644375 -91.65625 28.65625 C-90.43421875 27.24859375 -90.43421875 27.24859375 -89.1875 25.8125 C-88.4965625 24.9978125 -87.805625 24.183125 -87.09375 23.34375 C-82.79696106 18.36493107 -78.2809856 13.96641058 -73.1875 9.8125 C-72.6419043 9.36519531 -72.09630859 8.91789062 -71.53417969 8.45703125 C-69.67642335 6.94057669 -67.80882705 5.43716808 -65.9375 3.9375 C-65.33470215 3.44846191 -64.7319043 2.95942383 -64.11083984 2.45556641 C-61.16287232 0.12398462 -58.86938697 -1.45411601 -55.1875 -2.1875 C-55.1875 -2.8475 -55.1875 -3.5075 -55.1875 -4.1875 C-53.12700145 -5.00506238 -51.06401147 -5.81634734 -49 -6.625 C-47.27716797 -7.30369141 -47.27716797 -7.30369141 -45.51953125 -7.99609375 C-29.52013464 -13.71686276 -13.41660786 -9.74279846 0 0 Z " fill="#45CBDC" transform="translate(280.1875,143.1875)"/>
<path d="M0 0 C1.1446875 0.495 1.1446875 0.495 2.3125 1 C4.99069135 2.17436686 4.99069135 2.17436686 8 2 C8 2.66 8 3.32 8 4 C7.01 4.495 7.01 4.495 6 5 C6.515625 5.5775 7.03125 6.155 7.5625 6.75 C9 9 9 9 8.6875 11.125 C8.460625 11.74375 8.23375 12.3625 8 13 C8 13.66 8 14.32 8 15 C8.66 15.66 9.32 16.32 10 17 C9.835 17.598125 9.67 18.19625 9.5 18.8125 C8.80115215 21.86995935 9.44416633 23.31265094 11 26 C13.52372901 27.36078035 13.52372901 27.36078035 16 28 C16.06058594 28.58007812 16.12117188 29.16015625 16.18359375 29.7578125 C16.66016561 34.20092863 17.21008666 38.59905423 18 43 C19.175625 43.0928125 19.175625 43.0928125 20.375 43.1875 C23 44 23 44 24.375 46.375 C25 49 25 49 24 52 C25.37492804 55.1668838 25.37492804 55.1668838 27 58 C28.65 58 30.3 58 32 58 C32.144375 58.763125 32.28875 59.52625 32.4375 60.3125 C32.9632594 63.08172908 32.9632594 63.08172908 34 66 C35.98 66 37.96 66 40 66 C40.495 69.96 40.495 69.96 41 74 C43.31 74.66 45.62 75.32 48 76 C47.01 77.32 46.02 78.64 45 80 C45.61875 80.20625 46.2375 80.4125 46.875 80.625 C49 82 49 82 49.875 84.875 C51.33378293 88.9271748 53.48277428 89.68012772 57 92 C57.875 94.75 57.875 94.75 58 97 C59.56215548 97.16986545 61.1247452 97.33573964 62.6875 97.5 C63.55761719 97.5928125 64.42773438 97.685625 65.32421875 97.78125 C67.89723339 97.99159864 70.41984364 98.03719144 73 98 C73 98.66 73 99.32 73 100 C72.34 100 71.68 100 71 100 C71.33 101.65 71.66 103.3 72 105 C73.11375 105.103125 74.2275 105.20625 75.375 105.3125 C76.57125 105.539375 77.7675 105.76625 79 106 C81 109 81 109 81 113 C83.64738916 114.4606285 84.89448334 115 88 115 C87.51515724 110.35413108 87.51515724 110.35413108 86 106 C85.92982571 102.91233143 86.00312118 99.83769863 86.0625 96.75 C86.19655806 94.03746987 86.19655806 94.03746987 85 92 C85.0637985 89.60175645 85.20021125 87.20521629 85.375 84.8125 C85.46523437 83.51957031 85.55546875 82.22664063 85.6484375 80.89453125 C85.97939538 77.22825336 86.44340506 73.63673472 87 70 C87.33 70 87.66 70 88 70 C88.01458252 71.01199463 88.02916504 72.02398926 88.04418945 73.06665039 C88.10308515 76.89705109 88.18029203 80.72691842 88.26245117 84.55688477 C88.29527884 86.20035003 88.32343496 87.84391666 88.34643555 89.48754883 C88.50231791 100.34293159 89.44451415 110.42567789 92 121 C81.5851573 119.09443839 73.17174414 111.35708526 65 105 C63.58654297 103.93652344 63.58654297 103.93652344 62.14453125 102.8515625 C61.43683594 102.24054688 60.72914063 101.62953125 60 101 C60 100.34 60 99.68 60 99 C59.15501953 98.64228516 59.15501953 98.64228516 58.29296875 98.27734375 C30.71170696 82.91265447 10.90497853 37.90880539 2 9 C1.20258063 5.9972773 0.55597597 3.05786782 0 0 Z M65 99 C65 99.66 65 100.32 65 101 C65.99 100.67 66.98 100.34 68 100 C67.01 99.67 66.02 99.34 65 99 Z " fill="#1C75A4" transform="translate(127,206)"/>
<path d="M0 0 C2.77709825 1.54037855 3.48789239 2.17571938 5.0625 5.0625 C5.31 6.17625 5.31 6.17625 5.5625 7.3125 C3.3125 9.375 3.3125 9.375 0.5625 11.3125 C-1.6875 11.1875 -1.6875 11.1875 -3.4375 10.3125 C-3.7675 9.6525 -4.0975 8.9925 -4.4375 8.3125 C-7.43330623 7.31389792 -9.12271397 7.22664926 -12.1875 8.0625 C-14.7625645 9.16148578 -14.7625645 9.16148578 -15.4375 12.3125 C-15.90719115 16.92471308 -16.2457959 20.92223105 -13.875 25 C-10.33403848 26.90667159 -8.23867244 26.41829562 -4.4375 25.3125 C-2.47462176 23.39511145 -2.47462176 23.39511145 -1.4375 21.3125 C4.17830882 22.74632353 4.17830882 22.74632353 5.75 25.0625 C5.45038594 28.65786875 3.14885223 30.98544786 0.5625 33.3125 C-4.10745465 36.24111563 -9.1083662 35.91636785 -14.4375 35.3125 C-19.79832952 33.58446704 -22.7496843 30.17124377 -25.4375 25.3125 C-27.42418578 19.35244265 -27.42621422 12.64469281 -24.8125 6.875 C-19.6785485 -2.04090153 -8.94655593 -4.04880633 0 0 Z " fill="#FDFDFD" transform="translate(150.4375,369.6875)"/>
<path d="M0 0 C0 2.64 0 5.28 0 8 C3.3 8 6.6 8 10 8 C10 10.64 10 13.28 10 16 C6.7 16 3.4 16 0 16 C0.33 21.94 0.66 27.88 1 34 C3.64 34 6.28 34 9 34 C10.21676146 36.57667134 11.05184833 38.37782003 10.8125 41.25 C10.544375 41.8275 10.27625 42.405 10 43 C5.02424229 44.6585859 0.06510089 44.76318946 -4.875 42.9375 C-8.22766813 39.88065553 -9.76672478 36.20111834 -10.23925781 31.74243164 C-10.29380389 29.34215628 -10.26291081 26.96211077 -10.1875 24.5625 C-10.17396484 23.73556641 -10.16042969 22.90863281 -10.14648438 22.05664062 C-10.11146992 20.0374736 -10.05767562 18.01864682 -10 16 C-11.65 16 -13.3 16 -15 16 C-15 13.36 -15 10.72 -15 8 C-13.35 8 -11.7 8 -10 8 C-10 5.69 -10 3.38 -10 1 C-6.61981469 -0.04005702 -3.5219721 -0.08004482 0 0 Z " fill="#FDFDFD" transform="translate(362,361)"/>
<path d="M0 0 C-0.66 2.97 -1.32 5.94 -2 9 C-3.27875 9.12375 -4.5575 9.2475 -5.875 9.375 C-9.34790936 9.69042399 -9.34790936 9.69042399 -12 12 C-13.12308871 16.89398922 -13.30406396 21.87574548 -13.5625 26.875 C-13.60568359 27.65875 -13.64886719 28.4425 -13.69335938 29.25 C-13.79853351 31.16650649 -13.89967925 33.08323333 -14 35 C-16.97 35 -19.94 35 -23 35 C-23 23.45 -23 11.9 -23 0 C-20.03 0 -17.06 0 -14 0 C-13.67 0.99 -13.34 1.98 -13 3 C-12.5875 2.525625 -12.175 2.05125 -11.75 1.5625 C-8.02155519 -1.76646858 -4.67463191 -0.95617471 0 0 Z " fill="#FDFDFD" transform="translate(225,369)"/>
<path d="M0 0 C3.8966152 -0.00433922 7.79206317 -0.0406644 11.68847656 -0.07861328 C46.31120062 -0.23451046 81.29611175 5.96126603 113.69628906 18.37060547 C113.69628906 18.70060547 113.69628906 19.03060547 113.69628906 19.37060547 C108.15971612 19.79649569 103.79962924 18.27585247 98.69628906 16.37060547 C98.69628906 17.03060547 98.69628906 17.69060547 98.69628906 18.37060547 C94.60752919 18.55645819 92.29919519 18.17205853 88.69628906 16.37060547 C86.49881776 16.66865554 86.49881776 16.66865554 84.69628906 17.37060547 C84.36628906 15.39060547 84.03628906 13.41060547 83.69628906 11.37060547 C78.10548764 10.52671091 72.76778505 10.30552234 67.11425781 10.43310547 C64.69628906 10.37060547 64.69628906 10.37060547 61.69628906 9.37060547 C60.70628906 9.37060547 59.71628906 9.37060547 58.69628906 9.37060547 C56.6922368 8.71622106 54.6920023 8.04999721 52.69628906 7.37060547 C52.03628906 7.37060547 51.37628906 7.37060547 50.69628906 7.37060547 C50.36628906 8.03060547 50.03628906 8.69060547 49.69628906 9.37060547 C48.37628906 8.71060547 47.05628906 8.05060547 45.69628906 7.37060547 C45.69628906 6.71060547 45.69628906 6.05060547 45.69628906 5.37060547 C44.70628906 5.04060547 43.71628906 4.71060547 42.69628906 4.37060547 C42.03628906 4.70060547 41.37628906 5.03060547 40.69628906 5.37060547 C40.69628906 4.71060547 40.69628906 4.05060547 40.69628906 3.37060547 C39.82746094 3.38220703 38.95863281 3.39380859 38.06347656 3.40576172 C36.91105469 3.41478516 35.75863281 3.42380859 34.57128906 3.43310547 C33.43433594 3.44470703 32.29738281 3.45630859 31.12597656 3.46826172 C27.69628906 3.37060547 27.69628906 3.37060547 24.99755859 2.875 C21.13394958 2.28468672 17.34412941 2.2085169 13.44628906 2.20263672 C12.66995117 2.19930832 11.89361328 2.19597992 11.09375 2.19255066 C9.45996692 2.18751078 7.82617365 2.18514142 6.19238281 2.18530273 C3.70392858 2.18311219 1.21591528 2.16491444 -1.27246094 2.14599609 C-2.86620943 2.14306229 -4.45996002 2.14107741 -6.05371094 2.14013672 C-6.79137695 2.1329512 -7.52904297 2.12576569 -8.2890625 2.11836243 C-12.69297225 2.13769281 -16.19772548 2.8127955 -20.30371094 4.37060547 C-26.94817022 5.00290079 -33.70150609 4.15725115 -40.30371094 3.37060547 C-40.30371094 4.03060547 -40.30371094 4.69060547 -40.30371094 5.37060547 C-44.63644908 6.29904936 -47.9709728 6.29904936 -52.30371094 5.37060547 C-52.30371094 5.04060547 -52.30371094 4.71060547 -52.30371094 4.37060547 C-48.64680212 3.64232278 -44.97929206 2.99758012 -41.30371094 2.37060547 C-40.27858398 2.19432617 -39.25345703 2.01804687 -38.19726562 1.83642578 C-25.50824997 -0.03747948 -12.80581361 -0.00158842 0 0 Z " fill="#61D8D9" transform="translate(245.3037109375,69.62939453125)"/>
<path d="M0 0 C0.33 0 0.66 0 1 0 C1.56322526 6.68829997 2 13.28646398 2 20 C2.185625 21.2375 2.37125 22.475 2.5625 23.75 C3 27 3 27 2 30 C7.55139349 32.48351814 12.16524985 31.85330338 18 31 C18.33 29.35 18.66 27.7 19 26 C20.32 26 21.64 26 23 26 C25.58449214 23.94760919 26.8258935 22.52231951 27.875 19.375 C29 17 29 17 32.125 15.6875 C33.07375 15.460625 34.0225 15.23375 35 15 C35 13.35 35 11.7 35 10 C35.94875 9.690625 36.8975 9.38125 37.875 9.0625 C40.86080408 8.12605258 40.86080408 8.12605258 43 7 C43.65213292 4.97536745 43.65213292 4.97536745 44 3 C44.99 3 45.98 3 47 3 C47 2.34 47 1.68 47 1 C47.66 1 48.32 1 49 1 C48.40312566 4.34249629 47.26396123 6.46436342 45 9 C44.34 9 43.68 9 43 9 C42.73678955 9.58700684 42.4735791 10.17401367 42.20239258 10.77880859 C40.09373897 14.67414474 36.81122563 17.52622946 33.6875 20.625 C32.96908936 21.33849609 32.25067871 22.05199219 31.51049805 22.78710938 C20.82733835 33.23969728 8.19016777 43.78302656 -6 49 C-5.70996094 48.21689453 -5.70996094 48.21689453 -5.4140625 47.41796875 C-1.49093292 36.32833019 -0.65559267 25.52139821 -0.375 13.8125 C-0.3367036 12.46547279 -0.2976457 11.11846701 -0.2578125 9.77148438 C-0.16442092 6.51445318 -0.078646 3.25741491 0 0 Z " fill="#1B7BAB" transform="translate(285,280)"/>
<path d="M0 0 C4.9808184 1.53401631 8.28464734 4.50357462 12.125 7.875 C13.05505859 8.66970703 13.05505859 8.66970703 14.00390625 9.48046875 C17.04224848 12.11369869 19.76297717 14.61997281 22 18 C21.01 18 20.02 18 19 18 C18.9175 18.78375 18.835 19.5675 18.75 20.375 C18 23 18 23 16 24.1875 C15.34 24.455625 14.68 24.72375 14 25 C12.58365167 27.83269666 12.6536995 30.47466438 12.4375 33.625 C12.35371094 34.81351563 12.26992188 36.00203125 12.18359375 37.2265625 C12.12300781 38.14179688 12.06242187 39.05703125 12 40 C13.32 40 14.64 40 16 40 C15.67 40.99 15.34 41.98 15 43 C14.06220703 43.15662109 14.06220703 43.15662109 13.10546875 43.31640625 C10.69778317 43.83179212 10.69778317 43.83179212 9.55078125 46.65234375 C9.14214844 47.73644531 8.73351562 48.82054687 8.3125 49.9375 C7.89613281 51.01902344 7.47976563 52.10054687 7.05078125 53.21484375 C6.70402344 54.13394531 6.35726563 55.05304688 6 56 C5.67 56.66 5.34 57.32 5 58 C4.34 58 3.68 58 3 58 C1.38890635 62.25351021 0.75973298 65.73303096 0.8046875 70.2734375 C0.81113281 71.42714844 0.81757813 72.58085937 0.82421875 73.76953125 C0.84097656 74.95933594 0.85773438 76.14914063 0.875 77.375 C0.88402344 78.58800781 0.89304687 79.80101562 0.90234375 81.05078125 C0.92583412 84.03405773 0.95868318 87.01692594 1 90 C0.67 90 0.34 90 0 90 C-0.50488515 85.93809157 -1.0030519 81.87538649 -1.5 77.8125 C-1.64308594 76.66201172 -1.78617187 75.51152344 -1.93359375 74.32617188 C-2.13662109 72.65844727 -2.13662109 72.65844727 -2.34375 70.95703125 C-2.46943359 69.93585205 -2.59511719 68.91467285 -2.72460938 67.86254883 C-3.42609177 60.57098754 -3.42609177 60.57098754 -1.64453125 58.18359375 C-1.03996094 57.60738281 -0.43539063 57.03117187 0.1875 56.4375 C7.66795983 48.45631973 10.40733159 37.81833771 10.27734375 27.1015625 C9.4929772 18.32991399 6.42668011 10.71777371 1.171875 3.70703125 C0 2 0 2 0 0 Z " fill="#03377F" transform="translate(279,149)"/>
<path d="M0 0 C0.66 0.33 1.32 0.66 2 1 C1.54109375 1.59425781 1.0821875 2.18851563 0.609375 2.80078125 C-8.03891542 14.48324078 -10.77820536 25.6136347 -9 40 C-8.18923288 42.95999894 -7.24371646 45.51256708 -5.875 48.25 C-5 50 -5 50 -5 52 C-7.475 52.495 -7.475 52.495 -10 53 C-10 52.01 -10 51.02 -10 50 C-9.34 50 -8.68 50 -8 50 C-8.65355469 49.36191406 -9.30710938 48.72382813 -9.98046875 48.06640625 C-12.72230544 43.9032693 -12.48867763 40.80230695 -12.3125 35.9375 C-12.29775635 35.09783691 -12.2830127 34.25817383 -12.26782227 33.39306641 C-12.13815669 27.59094928 -11.76827154 21.82335864 -11.12109375 16.0546875 C-11.08113281 15.37664062 -11.04117188 14.69859375 -11 14 C-11.495 13.505 -11.495 13.505 -12 13 C-14.90802461 15.21928194 -16.95312762 16.92969143 -19 20 C-19.845625 20.66 -20.69125 21.32 -21.5625 22 C-24.24126777 23.8357812 -24.24126777 23.8357812 -25 27 C-25.99 27.33 -26.98 27.66 -28 28 C-28.268125 28.763125 -28.53625 29.52625 -28.8125 30.3125 C-30 33 -30 33 -32.9375 34.875 C-36.7062313 37.49003805 -37.26151447 39.842752 -39 44 C-41.6875 45.9375 -41.6875 45.9375 -44 47 C-37.70390103 28.58560302 -15.93748286 10.2317677 0 0 Z " fill="#064582" transform="translate(220,148)"/>
<path d="M0 0 C2.97 0.495 2.97 0.495 6 1 C6.33 4.63 6.66 8.26 7 12 C8.98 12 10.96 12 13 12 C13 12.66 13 13.32 13 14 C14.32 13.67 15.64 13.34 17 13 C17 13.66 17 14.32 17 15 C11.375 16.125 11.375 16.125 8 15 C7.01 16.485 7.01 16.485 6 18 C3.375 18.1875 3.375 18.1875 1 18 C0.67 20.31 0.34 22.62 0 25 C-0.66 25 -1.32 25 -2 25 C-2 25.99 -2 26.98 -2 28 C-4.31 28 -6.62 28 -9 28 C-8.54901762 26.06077578 -8.08894441 24.12366406 -7.625 22.1875 C-7.24214844 20.56908203 -7.24214844 20.56908203 -6.8515625 18.91796875 C-6 16 -6 16 -4 13 C-3.67 12.01 -3.34 11.02 -3 10 C-2.01 10 -1.02 10 0 10 C0 6.7 0 3.4 0 0 Z " fill="#0BC0DE" transform="translate(273,375)"/>
<path d="M0 0 C0.639375 0.165 1.27875 0.33 1.9375 0.5 C4.9080332 1.22012926 4.81078366 1.06307211 8 0 C7.4319619 4.15416036 6.48578875 7.65215226 4.8125 11.4921875 C4.36527588 12.51997314 3.91805176 13.54775879 3.45727539 14.60668945 C2.97637451 15.68523193 2.49547363 16.76377441 2 17.875 C1.50814209 18.98383545 1.01628418 20.0926709 0.50952148 21.23510742 C-2.41145856 27.72497 -5.45980497 34.10169336 -8.9375 40.3125 C-9.46633789 41.26068604 -9.46633789 41.26068604 -10.00585938 42.22802734 C-11.9769626 45.62469423 -14.08926131 48.36275353 -17 51 C-17.495 49.515 -17.495 49.515 -18 48 C-19.485 48.495 -19.485 48.495 -21 49 C-20.01 45.37 -19.02 41.74 -18 38 C-15.36 38.33 -12.72 38.66 -10 39 C-9.7834375 37.824375 -9.7834375 37.824375 -9.5625 36.625 C-9 34 -9 34 -8 32 C-7.95745644 30.00045254 -7.95919217 27.99958364 -8 26 C-8 25.01 -8 24.02 -8 23 C-6.02 23 -4.04 23 -2 23 C-1.95101563 22.40832031 -1.90203125 21.81664062 -1.8515625 21.20703125 C-1.43543133 16.80895528 -0.95034405 13.03071103 1 9 C0.34 8.67 -0.32 8.34 -1 8 C-0.67 7.34 -0.34 6.68 0 6 C0.039992 4.00039988 0.04346799 1.99952758 0 0 Z " fill="#1975A4" transform="translate(361,217)"/>
<path d="M0 0 C1.1446875 0.495 1.1446875 0.495 2.3125 1 C4.99069135 2.17436686 4.99069135 2.17436686 8 2 C8 2.66 8 3.32 8 4 C7.01 4.495 7.01 4.495 6 5 C6.515625 5.5775 7.03125 6.155 7.5625 6.75 C9 9 9 9 8.6875 11.125 C8.460625 11.74375 8.23375 12.3625 8 13 C8 13.66 8 14.32 8 15 C8.66 15.66 9.32 16.32 10 17 C9.835 17.598125 9.67 18.19625 9.5 18.8125 C8.80115215 21.86995935 9.44416633 23.31265094 11 26 C13.52372901 27.36078035 13.52372901 27.36078035 16 28 C16.06058594 28.58007812 16.12117188 29.16015625 16.18359375 29.7578125 C16.66016561 34.20092863 17.21008666 38.59905423 18 43 C19.175625 43.0928125 19.175625 43.0928125 20.375 43.1875 C21.24125 43.455625 22.1075 43.72375 23 44 C24.3125 46.5625 24.3125 46.5625 25 49 C22.525 49.495 22.525 49.495 20 50 C0 13.38872404 0 13.38872404 0 0 Z " fill="#167FAD" transform="translate(127,206)"/>
<path d="M0 0 C0.66 0.33 1.32 0.66 2 1 C1.34 1.99 0.68 2.98 0 4 C0.99 4.66 1.98 5.32 3 6 C0 8 0 8 -2.375 8.8828125 C-7.62431183 11.11689462 -11.73072515 15.28390459 -16 19 C-16.80679199 19.70189453 -16.80679199 19.70189453 -17.62988281 20.41796875 C-24.48851594 26.44097088 -30.62336127 32.56626279 -36.1953125 39.8203125 C-38 42 -38 42 -41 44 C-40.48895394 39.48981573 -38.85461691 37.17248365 -35.9375 33.75 C-35.1228125 32.7909375 -34.308125 31.831875 -33.46875 30.84375 C-32.24671875 29.43609375 -32.24671875 29.43609375 -31 28 C-30.3090625 27.1853125 -29.618125 26.370625 -28.90625 25.53125 C-21.49398437 16.94243427 -12.79667976 10.19494533 -3.87890625 3.2578125 C-1.87210991 1.70488259 -1.87210991 1.70488259 0 0 Z " fill="#39AFD5" transform="translate(222,141)"/>
<path d="M0 0 C2.82537064 1.19534912 4.67075074 2.56124041 7.0625 4.5625 C9.80205688 7.13537799 9.80205688 7.13537799 13 8 C15.6875 10.4375 15.6875 10.4375 18 13 C18 13.66 18 14.32 18 15 C18.5465625 15.22300781 19.093125 15.44601563 19.65625 15.67578125 C22.71979723 17.40668544 25.04520002 19.70646552 27.5 22.1875 C27.98976318 22.67782715 28.47952637 23.1681543 28.98413086 23.67333984 C32.44055849 27.21884165 34.80173307 30.60346614 37 35 C37.99 35.495 37.99 35.495 39 36 C38.505 36.99 38.505 36.99 38 38 C34.71268312 36.90422771 34.11996244 36.22195399 32 33.625 C25.32351846 25.80318063 18.17693037 18.68418206 10.0625 12.375 C9.51899902 11.94912598 8.97549805 11.52325195 8.41552734 11.08447266 C5.64093269 8.98559678 3.40793813 7.66245018 0 7 C-0.99 6.34 -1.98 5.68 -3 5 C-2.67 4.34 -2.34 3.68 -2 3 C-1.34 3.33 -0.68 3.66 0 4 C0 2.68 0 1.36 0 0 Z " fill="#36B1D5" transform="translate(277,142)"/>
<path d="M0 0 C1.68933922 1.6436814 3.35259924 3.3142876 5 5 C5.55437744 5.55985596 6.10875488 6.11971191 6.67993164 6.6965332 C8.571334 9.99695511 8.14711362 12.94969901 7.80859375 16.60546875 C7.75158798 17.35152878 7.69458221 18.09758881 7.635849 18.86625671 C7.44568232 21.246651 7.22760478 23.62290905 7 26 C6.92823547 26.75895569 6.85647095 27.51791138 6.78253174 28.29986572 C6.34003681 32.87305145 5.84654113 37.43929968 5.32543945 42.00415039 C5.06069782 44.32832135 4.80431567 46.65331104 4.54882812 48.97851562 C2.31199614 69.08072907 2.31199614 69.08072907 1 74 C0.01 74.495 0.01 74.495 -1 75 C-0.93941406 74.43192627 -0.87882813 73.86385254 -0.81640625 73.27856445 C0.76557653 58.41976894 0.76557653 58.41976894 0.875 43.49609375 C1.00914564 40.8173731 1.62787387 39.27794377 3 37 C2.34 37 1.68 37 1 37 C1 35.68 1 34.36 1 33 C1.99 32.505 1.99 32.505 3 32 C3.39764263 30.01178687 3.72428861 28.00875442 4 26 C4.31674575 24.66262906 4.64270064 23.32711192 5 22 C4.34 22 3.68 22 3 22 C3.5259375 20.9790625 3.5259375 20.9790625 4.0625 19.9375 C5.22600953 16.29183682 4.63367538 13.73164388 4 10 C4.33 9.34 4.66 8.68 5 8 C4.01 8 3.02 8 2 8 C1.33333333 5.33333333 0.66666667 2.66666667 0 0 Z " fill="#105689" transform="translate(215,200)"/>
<path d="M0 0 C5.19351056 0.42396005 10.2503592 1.0633447 14 5 C16.04012318 9.15194398 17.0594711 13.49463199 18 18 C18.16016602 18.7542627 18.32033203 19.50852539 18.48535156 20.28564453 C20.42805318 29.80024777 21.9664414 38.50311927 19 48 C18.34 47.67 17.68 47.34 17 47 C16.875 40.25 16.875 40.25 18 38 C17.855625 37.13375 17.71125 36.2675 17.5625 35.375 C17 32 17 32 17.125 28.1875 C17.18740796 23.56931092 16.17644549 19.09315057 14 15 C13.01 14.67 12.02 14.34 11 14 C9.0549 11.08235 8.54723683 9.37462715 8 6 C6.02 6 4.04 6 2 6 C1.67 5.01 1.34 4.02 1 3 C0.34 3 -0.32 3 -1 3 C-0.67 2.01 -0.34 1.02 0 0 Z M5 3 C4.67 3.66 4.34 4.32 4 5 C4.66 5 5.32 5 6 5 C5.67 4.34 5.34 3.68 5 3 Z " fill="#4ED5DB" transform="translate(359,89)"/>
<path d="M0 0 C0.66 0.33 1.32 0.66 2 1 C2 7.27 2 13.54 2 20 C3.32 20 4.64 20 6 20 C5.67 20.99 5.34 21.98 5 23 C4.37480469 23.10441406 3.74960937 23.20882812 3.10546875 23.31640625 C0.69778317 23.83179212 0.69778317 23.83179212 -0.44921875 26.65234375 C-0.85785156 27.73644531 -1.26648438 28.82054687 -1.6875 29.9375 C-2.10386719 31.01902344 -2.52023437 32.10054687 -2.94921875 33.21484375 C-3.29597656 34.13394531 -3.64273437 35.05304688 -4 36 C-4.33 36.66 -4.66 37.32 -5 38 C-5.66 38 -6.32 38 -7 38 C-8.61109365 42.25351021 -9.24026702 45.73303096 -9.1953125 50.2734375 C-9.18886719 51.42714844 -9.18242187 52.58085937 -9.17578125 53.76953125 C-9.15902344 54.95933594 -9.14226562 56.14914063 -9.125 57.375 C-9.11597656 58.58800781 -9.10695313 59.80101562 -9.09765625 61.05078125 C-9.07416588 64.03405773 -9.04131682 67.01692594 -9 70 C-9.33 70 -9.66 70 -10 70 C-10.50488515 65.93809157 -11.0030519 61.87538649 -11.5 57.8125 C-11.64308594 56.66201172 -11.78617187 55.51152344 -11.93359375 54.32617188 C-12.13662109 52.65844727 -12.13662109 52.65844727 -12.34375 50.95703125 C-12.46943359 49.93585205 -12.59511719 48.91467285 -12.72460938 47.86254883 C-13.42609177 40.57098754 -13.42609177 40.57098754 -11.64453125 38.18359375 C-11.03996094 37.60738281 -10.43539063 37.03117187 -9.8125 36.4375 C-2.20149292 28.31703403 0.19719885 18.01521516 0.0625 7.1875 C0.05798828 6.49462891 0.05347656 5.80175781 0.04882812 5.08789062 C0.03713156 3.39188932 0.01919924 1.69593297 0 0 Z " fill="#114377" transform="translate(289,169)"/>
<path d="M0 0 C-3 2 -3 2 -5.625 2.5 C-6.40875 2.665 -7.1925 2.83 -8 3 C-8.33 3.66 -8.66 4.32 -9 5 C-9.66 5 -10.32 5 -11 5 C-11.33 5.66 -11.66 6.32 -12 7 C-12.66 6.67 -13.32 6.34 -14 6 C-14.53160457 8.41474617 -15.05054766 10.83108107 -15.5625 13.25 C-15.78969727 14.27287109 -15.78969727 14.27287109 -16.02148438 15.31640625 C-16.77005182 18.90256655 -17.10590569 21.50338641 -16 25 C-16.9375 27.625 -16.9375 27.625 -18 30 C-18.17149859 32.20008168 -18.17149859 32.20008168 -16.5 34.5 C-15 37 -15 37 -15 39 C-16.98 38.34 -18.96 37.68 -21 37 C-21.33 37.66 -21.66 38.32 -22 39 C-21.47506799 14.6169083 -21.47506799 14.6169083 -17 5 C-14.53092411 2.65200885 -12.26841084 1.80608206 -9 1 C-7.3603125 0.3503125 -7.3603125 0.3503125 -5.6875 -0.3125 C-3 -1 -3 -1 0 0 Z " fill="#53CCD4" transform="translate(143,89)"/>
<path d="M0 0 C0.66 0 1.32 0 2 0 C1.40312566 3.34249629 0.26396123 5.46436342 -2 8 C-2.66 8 -3.32 8 -4 8 C-4.38285156 8.86963379 -4.38285156 8.86963379 -4.7734375 9.75683594 C-6.12584777 12.23015312 -7.63732524 13.89602109 -9.625 15.890625 C-10.33140625 16.59960938 -11.0378125 17.30859375 -11.765625 18.0390625 C-12.50296875 18.76867187 -13.2403125 19.49828125 -14 20.25 C-15.10601562 21.36761719 -15.10601562 21.36761719 -16.234375 22.5078125 C-16.94078125 23.21164062 -17.6471875 23.91546875 -18.375 24.640625 C-19.02210938 25.28547852 -19.66921875 25.93033203 -20.3359375 26.59472656 C-22 28 -22 28 -24 28 C-23.41800054 24.62440315 -22.37247717 23.37247717 -20 21 C-19.731875 20.154375 -19.46375 19.30875 -19.1875 18.4375 C-18 16 -18 16 -14.875 14.6875 C-13.451875 14.3471875 -13.451875 14.3471875 -12 14 C-12 12.35 -12 10.7 -12 9 C-11.05125 8.690625 -10.1025 8.38125 -9.125 8.0625 C-6.13919592 7.12605258 -6.13919592 7.12605258 -4 6 C-3.34786708 3.97536745 -3.34786708 3.97536745 -3 2 C-2.01 2 -1.02 2 0 2 C0 1.34 0 0.68 0 0 Z " fill="#2075A0" transform="translate(332,281)"/>
<path d="M0 0 C-0.18459532 7.95438036 -1.6157407 15.45194288 -3.375 23.1875 C-3.58406982 24.11320801 -3.79313965 25.03891602 -4.00854492 25.99267578 C-5.36190612 31.78305828 -7.01070413 37.39638605 -9 43 C-11.17280453 34.34560907 -11.17280453 34.34560907 -10 32 C-10 31.01 -10 30.02 -10 29 C-9.01 28.34 -8.02 27.68 -7 27 C-7.99 24.69 -8.98 22.38 -10 20 C-9.34 19.67 -8.68 19.34 -8 19 C-7.01 19.33 -6.02 19.66 -5 20 C-4.855625 18.88625 -4.71125 17.7725 -4.5625 16.625 C-4 13 -4 13 -3 11 C-2.93003986 9.29297265 -2.91559846 7.58331997 -2.9375 5.875 C-2.94652344 4.96492187 -2.95554687 4.05484375 -2.96484375 3.1171875 C-2.97644531 2.41851562 -2.98804688 1.71984375 -3 1 C-1 0 -1 0 0 0 Z " fill="#218AB6" transform="translate(379,173)"/>
<path d="M0 0 C0.66 0 1.32 0 2 0 C2 1.32 2 2.64 2 4 C4.97 4.495 4.97 4.495 8 5 C7.67 6.98 7.34 8.96 7 11 C6.67 11 6.34 11 6 11 C6 9.35 6 7.7 6 6 C4.35 6 2.7 6 1 6 C0.67 8.97 0.34 11.94 0 15 C-0.99 15.33 -1.98 15.66 -3 16 C-3.56058477 17.73433657 -3.56058477 17.73433657 -4 20 C-4.495 21.134375 -4.99 22.26875 -5.5 23.4375 C-6.73921944 26.38064616 -7.52538482 28.86753978 -8 32 C-6.02 32.33 -4.04 32.66 -2 33 C-2 32.01 -2 31.02 -2 30 C-1.34 30 -0.68 30 0 30 C-0.33 31.32 -0.66 32.64 -1 34 C-4.3 34 -7.6 34 -11 34 C-8.94279377 26.12810361 -6.53182154 18.47872473 -3.8125 10.8125 C-3.44447266 9.76513672 -3.07644531 8.71777344 -2.69726562 7.63867188 C-1.80158738 5.09122337 -0.90246184 2.54505148 0 0 Z " fill="#1FBBD4" transform="translate(273,370)"/>
<path d="M0 0 C1.33998047 0.06960938 1.33998047 0.06960938 2.70703125 0.140625 C3.60808594 0.17671875 4.50914062 0.2128125 5.4375 0.25 C6.46810547 0.31960938 6.46810547 0.31960938 7.51953125 0.390625 C7.84953125 1.050625 8.17953125 1.710625 8.51953125 2.390625 C7.76269531 4.02294922 7.76269531 4.02294922 6.53515625 5.9453125 C6.09429687 6.64269531 5.6534375 7.34007812 5.19921875 8.05859375 C4.72742188 8.78691406 4.255625 9.51523437 3.76953125 10.265625 C3.31320312 10.98621094 2.856875 11.70679688 2.38671875 12.44921875 C0.20260301 15.87689171 -2.03644356 19.13192474 -4.48046875 22.390625 C-4.48046875 18.100625 -4.48046875 13.810625 -4.48046875 9.390625 C-3.16046875 8.730625 -1.84046875 8.070625 -0.48046875 7.390625 C-0.15046875 6.730625 0.17953125 6.070625 0.51953125 5.390625 C1.83953125 5.390625 3.15953125 5.390625 4.51953125 5.390625 C4.51953125 4.070625 4.51953125 2.750625 4.51953125 1.390625 C1.64086869 1.25583565 1.64086869 1.25583565 -1.48046875 2.390625 C-3.22766218 4.89493559 -4.38050963 7.55014232 -5.48046875 10.390625 C-6.14046875 10.390625 -6.80046875 10.390625 -7.48046875 10.390625 C-4.62573902 0.72846284 -4.62573902 0.72846284 0 0 Z " fill="#07397B" transform="translate(447.48046875,356.609375)"/>
<path d="M0 0 C0.99 0.33 1.98 0.66 3 1 C4.6875 4.5625 4.6875 4.5625 6 8 C7.65 8 9.3 8 11 8 C11.144375 8.763125 11.28875 9.52625 11.4375 10.3125 C11.9632594 13.08172908 11.9632594 13.08172908 13 16 C14.98 16 16.96 16 19 16 C19.33 18.31 19.66 20.62 20 23 C17.3203125 23.41015625 17.3203125 23.41015625 14 23 C11.95117174 20.80830093 10.47156568 18.92300525 8.875 16.4375 C8.45863281 15.82841797 8.04226562 15.21933594 7.61328125 14.59179688 C0 3.31507151 0 3.31507151 0 0 Z " fill="#1167A0" transform="translate(148,256)"/>
<path d="M0 0 C0.99 0 1.98 0 3 0 C2.79503906 0.60328125 2.59007812 1.2065625 2.37890625 1.828125 C2.10949219 2.62734375 1.84007812 3.4265625 1.5625 4.25 C1.29566406 5.03890625 1.02882812 5.8278125 0.75390625 6.640625 C-2.52255758 16.8944289 -2.74187556 29.51624888 2.125 39.25 C3 41 3 41 3 43 C0.525 43.495 0.525 43.495 -2 44 C-2 43.01 -2 42.02 -2 41 C-1.34 41 -0.68 41 0 41 C-0.98033203 40.04287109 -0.98033203 40.04287109 -1.98046875 39.06640625 C-4.72180247 34.90403299 -4.49007996 31.80175105 -4.3125 26.9375 C-4.28712158 25.67691772 -4.28712158 25.67691772 -4.26123047 24.39086914 C-4.20120629 21.92538798 -4.10830411 19.46379013 -4 17 C-3.94457031 15.7315625 -3.88914063 14.463125 -3.83203125 13.15625 C-3.32855058 5.32855058 -3.32855058 5.32855058 -1 3 C-0.67 2.01 -0.34 1.02 0 0 Z " fill="#0B4076" transform="translate(212,157)"/>
<path d="M0 0 C0.66 0.33 1.32 0.66 2 1 C1.01 2.485 1.01 2.485 0 4 C0.99 4.66 1.98 5.32 3 6 C0 8 0 8 -2.375 8.8671875 C-6.37099448 10.59164941 -9.2535692 13.46954046 -12.5 16.3203125 C-15.30622926 18.20574778 -16.69311687 18.3661192 -20 18 C-20 17.34 -20 16.68 -20 16 C-17.8270767 14.15152689 -15.64597332 12.4078651 -13.375 10.6875 C-12.13214003 9.73394877 -10.88994698 8.77952763 -9.6484375 7.82421875 C-9.0409668 7.35806152 -8.43349609 6.8919043 -7.80761719 6.41162109 C-5.15083902 4.33686537 -2.57513568 2.17499921 0 0 Z " fill="#3DB7D4" transform="translate(222,141)"/>
<path d="M0 0 C2.475 0.99 2.475 0.99 5 2 C5.06058594 2.58007812 5.12117187 3.16015625 5.18359375 3.7578125 C5.66016561 8.20092863 6.21008666 12.59905423 7 17 C8.175625 17.0928125 8.175625 17.0928125 9.375 17.1875 C10.24125 17.455625 11.1075 17.72375 12 18 C13.3125 20.5625 13.3125 20.5625 14 23 C12.35 23.33 10.7 23.66 9 24 C0 8.43963554 0 8.43963554 0 0 Z " fill="#0C77B1" transform="translate(138,232)"/>
<path d="M0 0 C3.42319361 4.07523049 5.84493367 8.57062751 6.1875 13.9375 C6.125625 14.618125 6.06375 15.29875 6 16 C5.34 16 4.68 16 4 16 C3.67 16.99 3.34 17.98 3 19 C2.34 18.67 1.68 18.34 1 18 C1 17.34 1 16.68 1 16 C0.34 16 -0.32 16 -1 16 C-1 14.35 -1 12.7 -1 11 C-1.66 10.67 -2.32 10.34 -3 10 C-3.33 10.66 -3.66 11.32 -4 12 C-4.66 10.68 -5.32 9.36 -6 8 C-5.34 8 -4.68 8 -4 8 C-3.67 7.01 -3.34 6.02 -3 5 C-2.01 5.66 -1.02 6.32 0 7 C0 6.01 0 5.02 0 4 C0 2.68 0 1.36 0 0 Z " fill="#0EC1DF" transform="translate(290,364)"/>
<path d="M0 0 C0.99 0.99 1.98 1.98 3 3 C2.54625 4.010625 2.0925 5.02125 1.625 6.0625 C0.09581041 9.64966437 -1.00894513 13.22160332 -2 17 C-2.24878906 17.886875 -2.49757812 18.77375 -2.75390625 19.6875 C-4.46378471 26.0313969 -5.40699059 32.03414639 -5.69140625 38.6015625 C-6 41 -6 41 -8 43 C-9.125 36.25 -9.125 36.25 -8 34 C-7.86745711 32.62744469 -7.76915797 31.25152013 -7.6875 29.875 C-6.75629603 19.70566137 -3.91853134 9.40447522 0 0 Z " fill="#0966A8" transform="translate(164,212)"/>
<path d="M0 0 C0.639375 0.165 1.27875 0.33 1.9375 0.5 C4.9080332 1.22012926 4.81078366 1.06307211 8 0 C7.49487476 6.22987798 4.67395877 11.45474233 2 17 C1.34 17 0.68 17 0 17 C-0.33 17.66 -0.66 18.32 -1 19 C-0.54177532 15.53058454 -0.10868317 12.32604951 1 9 C0.34 8.67 -0.32 8.34 -1 8 C-0.67 7.34 -0.34 6.68 0 6 C0.039992 4.00039988 0.04346799 1.99952758 0 0 Z " fill="#177EAF" transform="translate(361,217)"/>
<path d="M0 0 C0.66 0 1.32 0 2 0 C2.11601562 0.72832031 2.23203125 1.45664063 2.3515625 2.20703125 C3.01265063 5.05448915 3.95082196 7.14555798 5.375 9.6875 C5.79523438 10.45449219 6.21546875 11.22148437 6.6484375 12.01171875 C8.00442919 14.27471082 8.00442919 14.27471082 11 16 C10.34 16.33 9.68 16.66 9 17 C9.27714844 17.65226562 9.55429687 18.30453125 9.83984375 18.9765625 C11.77388402 23.64303689 13.46633958 27.93022603 14 33 C10.65049802 31.32524901 10.09103154 27.47594114 8.8125 24.125 C6.22222999 17.53969673 3.33133029 11.82861832 -0.71484375 6.00390625 C-2 4 -2 4 -2 2 C-1.34 2 -0.68 2 0 2 C0 1.34 0 0.68 0 0 Z " fill="#2795C6" transform="translate(324,189)"/>
<path d="M0 0 C1.875 2.375 1.875 2.375 3 5 C2.67 5.99 2.34 6.98 2 8 C-2.75 9 -2.75 9 -5 9 C-7.12508244 5.81237635 -7.5020163 3.73487777 -8 0 C-4.62848454 -1.12383849 -3.31972498 -1.16190374 0 0 Z " fill="#063A7D" transform="translate(450,393)"/>
<path d="M0 0 C2.91562667 4.37344001 3.68432959 8.91672797 5 14 C1.37 14 -2.26 14 -6 14 C-7.485 9.545 -7.485 9.545 -9 5 C-14.61 4.67 -20.22 4.34 -26 4 C-26.33 5.98 -26.66 7.96 -27 10 C-27.33 10 -27.66 10 -28 10 C-27.67 7.69 -27.34 5.38 -27 3 C-20.73 3 -14.46 3 -8 3 C-5 10 -5 10 -5 13 C-2.36 13 0.28 13 3 13 C2.34 11.35 1.68 9.7 1 8 C0.34 8 -0.32 8 -1 8 C-0.67 5.36 -0.34 2.72 0 0 Z " fill="#2EB1C7" transform="translate(301,390)"/>
<path d="M0 0 C0 0.66 0 1.32 0 2 C-0.78246094 2.12117188 -1.56492187 2.24234375 -2.37109375 2.3671875 C-3.88896484 2.61855469 -3.88896484 2.61855469 -5.4375 2.875 C-6.44683594 3.03742188 -7.45617187 3.19984375 -8.49609375 3.3671875 C-9.32238281 3.57601563 -10.14867187 3.78484375 -11 4 C-11.33 4.66 -11.66 5.32 -12 6 C-16.1444526 5.88093074 -20.28870716 5.75663609 -24.43286133 5.62768555 C-25.84004557 5.58461342 -27.24727282 5.54292136 -28.65454102 5.50268555 C-30.68779408 5.4443043 -32.72083617 5.38081315 -34.75390625 5.31640625 C-35.97408447 5.27974854 -37.1942627 5.24309082 -38.45141602 5.20532227 C-42.01401411 4.99918914 -45.47640588 4.55531685 -49 4 C-49 3.67 -49 3.34 -49 3 C-48.29093506 3.01047363 -47.58187012 3.02094727 -46.85131836 3.03173828 C-32.77766432 3.21200884 -19.13657312 3.33690753 -5.30078125 0.43359375 C-3 0 -3 0 0 0 Z " fill="#0E366D" transform="translate(282,272)"/>
<path d="M0 0 C2.29548273 4.23831746 2.98787559 8.34338527 3.75 13.0625 C3.88704346 13.90852783 4.02408691 14.75455566 4.1652832 15.6262207 C5.10021518 22.08064546 4.96269956 27.71653737 3 34 C2.34 33.67 1.68 33.34 1 33 C0.875 26.25 0.875 26.25 2 24 C1.855625 23.13375 1.71125 22.2675 1.5625 21.375 C1.10970428 18.6582257 0.95601799 16.40949758 1 13.6875 C1 12.470625 1 11.25375 1 10 C0.67 9.67 0.34 9.34 0 9 C-0.07179964 7.48071962 -0.08392007 5.95832518 -0.0625 4.4375 C-0.05347656 3.61121094 -0.04445313 2.78492187 -0.03515625 1.93359375 C-0.02355469 1.29550781 -0.01195312 0.65742187 0 0 Z " fill="#4BBECC" transform="translate(375,103)"/>
<path d="M0 0 C0.66 0.66 1.32 1.32 2 2 C1.54545455 7.45454545 1.54545455 7.45454545 -1 10 C-0.34 10.94875 0.32 11.8975 1 12.875 C3 16 3 16 3 18 C1.02 17.34 -0.96 16.68 -3 16 C-3.33 16.66 -3.66 17.32 -4 18 C-3.85786703 16.10388566 -3.71113093 14.20811606 -3.5625 12.3125 C-3.48128906 11.25675781 -3.40007812 10.20101562 -3.31640625 9.11328125 C-3.03357424 6.33035389 -2.73443805 3.69942461 -2 1 C-1.34 0.67 -0.68 0.34 0 0 Z " fill="#3AC3D5" transform="translate(125,110)"/>
<path d="M0 0 C5.94 0.66 11.88 1.32 18 2 C18.33 2.99 18.66 3.98 19 5 C18.01 5.66 17.02 6.32 16 7 C12.4375 5.625 12.4375 5.625 9 4 C8.34 4 7.68 4 7 4 C6.67 4.66 6.34 5.32 6 6 C4.68 5.34 3.36 4.68 2 4 C2 3.34 2 2.68 2 2 C1.34 1.34 0.68 0.68 0 0 Z " fill="#4DE2E7" transform="translate(289,73)"/>
<path d="M0 0 C1.68933922 1.6436814 3.35259924 3.3142876 5 5 C5.556875 5.53625 6.11375 6.0725 6.6875 6.625 C8.71466194 10.29319781 8.06972634 13.67066404 7.6875 17.75 C7.62626953 18.54277344 7.56503906 19.33554688 7.50195312 20.15234375 C7.34920979 22.10275869 7.17654756 24.05159555 7 26 C6.67 26 6.34 26 6 26 C5.93941406 25.09636719 5.87882813 24.19273437 5.81640625 23.26171875 C5.73261719 22.08222656 5.64882812 20.90273437 5.5625 19.6875 C5.48128906 18.51574219 5.40007812 17.34398437 5.31640625 16.13671875 C5.1132629 12.97409042 5.1132629 12.97409042 4 10 C4.33 9.34 4.66 8.68 5 8 C4.01 8 3.02 8 2 8 C1.33333333 5.33333333 0.66666667 2.66666667 0 0 Z " fill="#0F4174" transform="translate(215,200)"/>
<path d="M0 0 C3.95677402 1.67401978 6.84464213 4.13149285 10 7 C10 7.66 10 8.32 10 9 C5.24792529 9.43200679 2.21789302 7.98489083 -2 6 C-2 5.01 -2 4.02 -2 3 C-1.34 3.33 -0.68 3.66 0 4 C0 2.68 0 1.36 0 0 Z " fill="#38B6CB" transform="translate(277,142)"/>
<path d="M0 0 C3.96 0 7.92 0 12 0 C14.49149886 5.97959726 16.59533727 11.67901771 18 18 C14.80935462 16.40467731 14.13985479 13.20622256 13 10 C12.24602409 7.34489463 11.61415757 4.69284473 11 2 C5.06 2.495 5.06 2.495 -1 3 C-0.67 2.01 -0.34 1.02 0 0 Z " fill="#31B5CC" transform="translate(278,357)"/>
<path d="M0 0 C3.92280376 1.27226068 5.80802875 2.49284599 8 6 C8.33 6.66 8.66 7.32 9 8 C8.67 8.66 8.34 9.32 8 10 C8.99 10.33 9.98 10.66 11 11 C10.67 13.64 10.34 16.28 10 19 C7.74862848 15.62294272 6.07334504 12.12422495 4.31640625 8.47265625 C3.06659623 5.96768061 3.06659623 5.96768061 1.33984375 3.80859375 C0 2 0 2 0 0 Z " fill="#06336A" transform="translate(279,149)"/>
<path d="M0 0 C1.65 0.33 3.3 0.66 5 1 C5.625 2.8125 5.625 2.8125 6 5 C5.01 6.485 5.01 6.485 4 8 C3.34 8 2.68 8 2 8 C2 8.99 2 9.98 2 11 C0.35 11 -1.3 11 -3 11 C-2.01 7.37 -1.02 3.74 0 0 Z " fill="#0968A6" transform="translate(343,255)"/>
<path d="M0 0 C0.66 0 1.32 0 2 0 C2.433125 0.804375 2.86625 1.60875 3.3125 2.4375 C4.76787059 5.24282331 4.76787059 5.24282331 7.6875 5.8125 C8.8321875 5.9053125 8.8321875 5.9053125 10 6 C10.33 5.34 10.66 4.68 11 4 C11.66 3.67 12.32 3.34 13 3 C13.66 4.65 14.32 6.3 15 8 C14 9 14 9 10.25 9.375 C6.69154733 9.33666837 6.0707567 9.05419662 3.0625 6.75 C1.23965829 4.31954439 0.32968265 2.96714383 0 0 Z " fill="#0B3267" transform="translate(441,396)"/>
<path d="M0 0 C0.99 0 1.98 0 3 0 C2.54625 1.19625 2.0925 2.3925 1.625 3.625 C-0.50130466 9.9232958 -1.20497949 16.42471272 -2 23 C-2.66 23 -3.32 23 -4 23 C-3.88641524 20.04081802 -3.75966914 17.08323217 -3.625 14.125 C-3.5940625 13.28324219 -3.563125 12.44148437 -3.53125 11.57421875 C-3.49257812 10.76855469 -3.45390625 9.96289062 -3.4140625 9.1328125 C-3.3826416 8.38918457 -3.3512207 7.64555664 -3.31884766 6.87939453 C-3 5 -3 5 -1 3 C-0.67 2.01 -0.34 1.02 0 0 Z " fill="#08326C" transform="translate(212,157)"/>
<path d="M0 0 C2.475 0.99 2.475 0.99 5 2 C4.67 3.32 4.34 4.64 4 6 C3.34 5.67 2.68 5.34 2 5 C1.34 6.32 0.68 7.64 0 9 C-2.31 8.67 -4.62 8.34 -7 8 C-6 5 -6 5 -3.9375 3.8125 C-3.298125 3.544375 -2.65875 3.27625 -2 3 C-1.67 3.33 -1.34 3.66 -1 4 C-0.67 2.68 -0.34 1.36 0 0 Z " fill="#0CBFDF" transform="translate(282,366)"/>
<path d="M0 0 C0.33 0 0.66 0 1 0 C2.02472362 10.35702803 2.1050173 20.60328698 2 31 C1.67 31 1.34 31 1 31 C0.96261719 30.10796875 0.92523438 29.2159375 0.88671875 28.296875 C0.82097656 27.12640625 0.75523437 25.9559375 0.6875 24.75 C0.62949219 23.58984375 0.57148438 22.4296875 0.51171875 21.234375 C-0.02417505 17.8471989 -0.82001878 16.5481818 -3 14 C-3 13.34 -3 12.68 -3 12 C-2.34 11.67 -1.68 11.34 -1 11 C-0.5316735 8.41394668 -0.5316735 8.41394668 -0.375 5.4375 C-0.30023438 4.42558594 -0.22546875 3.41367188 -0.1484375 2.37109375 C-0.09945313 1.58863281 -0.05046875 0.80617188 0 0 Z " fill="#41A7BE" transform="translate(379,126)"/>
<path d="M0 0 C7.42857143 1 7.42857143 1 11 2 C11 3.65 11 5.3 11 7 C10.0925 6.649375 9.185 6.29875 8.25 5.9375 C5.12241564 5.03531221 3.94791919 4.86618493 1 6 C0.67 4.02 0.34 2.04 0 0 Z " fill="#4EDDE2" transform="translate(329,81)"/>
<path d="M0 0 C0.66 0.99 1.32 1.98 2 3 C1.319375 3.99 1.319375 3.99 0.625 5 C-1.35320433 8.65206954 -2.10774292 11.95052557 -3 16 C-1.02 16.33 0.96 16.66 3 17 C3 16.01 3 15.02 3 14 C3.66 14 4.32 14 5 14 C4.67 15.32 4.34 16.64 4 18 C0.7 18 -2.6 18 -6 18 C-4.41039668 11.76559832 -2.72399099 5.83712355 0 0 Z " fill="#32B0C5" transform="translate(268,386)"/>
<path d="M0 0 C0.309375 0.639375 0.61875 1.27875 0.9375 1.9375 C1.8345163 3.93610821 1.8345163 3.93610821 3 5 C3.15740605 6.70563778 3.25093392 8.41727244 3.31640625 10.12890625 C3.35830078 11.16337891 3.40019531 12.19785156 3.44335938 13.26367188 C3.48267578 14.35228516 3.52199219 15.44089844 3.5625 16.5625 C3.62727539 18.2012207 3.62727539 18.2012207 3.69335938 19.87304688 C3.79982068 22.58189564 3.90183516 25.29083992 4 28 C3.34 27.67 2.68 27.34 2 27 C1.58935547 25.05395508 1.58935547 25.05395508 1.3671875 22.51953125 C1.24150391 21.1437793 1.24150391 21.1437793 1.11328125 19.74023438 C1.03464844 18.77408203 0.95601563 17.80792969 0.875 16.8125 C0.78863281 15.86568359 0.70226562 14.91886719 0.61328125 13.94335938 C0.20346927 9.28256127 -0.11020147 4.68356268 0 0 Z " fill="#195A83" transform="translate(280,244)"/>
<path d="M0 0 C1.8482539 2.77238086 2.32066544 3.82715589 2.81640625 6.94140625 C2.94080078 7.68970703 3.06519531 8.43800781 3.19335938 9.20898438 C3.31517578 9.98564453 3.43699219 10.76230469 3.5625 11.5625 C4.25566745 16.93696586 4.25566745 16.93696586 6 22 C6.04022391 24.3329866 6.04320247 26.66706666 6 29 C3.78468106 24.85743473 2.87513294 20.74736538 1.875 16.1875 C1.69324219 15.40568359 1.51148437 14.62386719 1.32421875 13.81835938 C0.27551112 9.09917503 -0.19355645 4.83245945 0 0 Z " fill="#2D88A8" transform="translate(121,176)"/>
<path d="M0 0 C0.99 0.33 1.98 0.66 3 1 C2.67 2.65 2.34 4.3 2 6 C2.66 6 3.32 6 4 6 C3.625 8.9375 3.625 8.9375 3 12 C-0.21451269 13.60725635 -3.43612536 13.05748185 -7 13 C-7 12.34 -7 11.68 -7 11 C-4.03 11 -1.06 11 2 11 C1.67 10.113125 1.34 9.22625 1 8.3125 C0.08777857 5.29076653 -0.18330958 3.11626294 0 0 Z " fill="#1FB7D0" transform="translate(287,374)"/>
<path d="M0 0 C0.99 0.99 1.98 1.98 3 3 C1.93359375 5.48828125 1.93359375 5.48828125 0.8671875 7.9765625 C0.58101562 8.64429688 0.29484375 9.31203125 0 10 C-0.5625 11.3125 -1.125 12.625 -1.6875 13.9375 C-2.120625 14.948125 -2.55375 15.95875 -3 17 C-3.33 17 -3.66 17 -4 17 C-3.58411954 10.80481527 -2.39748106 5.73310689 0 0 Z " fill="#1678B2" transform="translate(164,212)"/>
<path d="M0 0 C1.32 0.66 2.64 1.32 4 2 C3.01 2.495 3.01 2.495 2 3 C2.27714844 3.65226563 2.55429687 4.30453125 2.83984375 4.9765625 C4.77388402 9.64303689 6.46633958 13.93022603 7 19 C3.72911974 17.36455987 3.09617671 13.87496738 1.8125 10.625 C1.52697266 9.93921875 1.24144531 9.2534375 0.94726562 8.546875 C-1.12294408 3.36883224 -1.12294408 3.36883224 0 0 Z " fill="#1F8AC0" transform="translate(331,203)"/>
<path d="M0 0 C0.99 0.33 1.98 0.66 3 1 C1.5756181 3.50834548 0.13668825 6.00604813 -1.3125 8.5 C-1.71662109 9.21542969 -2.12074219 9.93085938 -2.53710938 10.66796875 C-3.6082006 12.49666109 -4.79725124 14.25507952 -6 16 C-6.99 16 -7.98 16 -9 16 C-8.34 15.67 -7.68 15.34 -7 15 C-7 14.01 -7 13.02 -7 12 C-6.34 12 -5.68 12 -5 12 C-4.40929986 10.05396726 -4.40929986 10.05396726 -4 8 C-4.33 7.67 -4.66 7.34 -5 7 C-4.67 6.34 -4.34 5.68 -4 5 C-3.01 5 -2.02 5 -1 5 C-0.67 3.35 -0.34 1.7 0 0 Z " fill="#13699F" transform="translate(352,251)"/>
<path d="M0 0 C-1.44424635 3.23861303 -3.25772247 5.61969163 -5.625 8.25 C-6.25664062 8.95640625 -6.88828125 9.6628125 -7.5390625 10.390625 C-8.02117187 10.92171875 -8.50328125 11.4528125 -9 12 C-9.703125 10.265625 -9.703125 10.265625 -10 8 C-8.671875 5.859375 -8.671875 5.859375 -6.75 3.75 C-6.12609375 3.04359375 -5.5021875 2.3371875 -4.859375 1.609375 C-3 0 -3 0 0 0 Z " fill="#36A5D1" transform="translate(191,173)"/>
<path d="M0 0 C0 0.99 0 1.98 0 3 C-1.32 3 -2.64 3 -4 3 C-4.33 4.65 -4.66 6.3 -5 8 C-7.31 8 -9.62 8 -12 8 C-11.34 7.67 -10.68 7.34 -10 7 C-8.90833725 5.06669397 -8.90833725 5.06669397 -8 3 C-7 1 -7 1 -4.5625 -0.1875 C-2 -1 -2 -1 0 0 Z " fill="#3BC7DB" transform="translate(232,138)"/>
<path d="M0 0 C0.33 0 0.66 0 1 0 C1.04898438 0.63808594 1.09796875 1.27617187 1.1484375 1.93359375 C1.22320312 2.75988281 1.29796875 3.58617187 1.375 4.4375 C1.44460937 5.26121094 1.51421875 6.08492187 1.5859375 6.93359375 C1.72257812 7.61550781 1.85921875 8.29742187 2 9 C2.66 9.33 3.32 9.66 4 10 C4.66 8.68 5.32 7.36 6 6 C7.39195915 10.17587745 5.82323219 12.13474776 4 16 C1.39409715 14.69704858 1.03809045 13.7008725 0 11 C-0.1953125 8.203125 -0.1953125 8.203125 -0.125 5.25 C-0.09792969 3.77273437 -0.09792969 3.77273437 -0.0703125 2.265625 C-0.04710938 1.51796875 -0.02390625 0.7703125 0 0 Z " fill="#2197BC" transform="translate(120,164)"/>
<path d="M0 0 C2.46484375 0.875 2.46484375 0.875 5 2 C5.3721042 3.32303717 5.70630173 4.65737935 6 6 C6.66 6.33 7.32 6.66 8 7 C10 8 10 8 10.75 10.125 C10.87375 11.053125 10.87375 11.053125 11 12 C9.234375 11.84765625 9.234375 11.84765625 7 11 C5.078125 8.49609375 5.078125 8.49609375 3.25 5.4375 C2.63640625 4.42558594 2.0228125 3.41367188 1.390625 2.37109375 C0.93171875 1.58863281 0.4728125 0.80617187 0 0 Z " fill="#319FCC" transform="translate(313,179)"/>
<path d="M0 0 C1.32 0.33 2.64 0.66 4 1 C3.67 2.32 3.34 3.64 3 5 C1.68 5 0.36 5 -1 5 C-1.33 5.66 -1.66 6.32 -2 7 C-2.66 6.34 -3.32 5.68 -4 5 C-5.31747324 4.30251417 -6.64914193 3.63040043 -8 3 C-5.10765685 2.17361624 -3.11257569 2 0 2 C0 1.34 0 0.68 0 0 Z " fill="#4CE3E9" transform="translate(205,73)"/>
<path d="M0 0 C1.1446875 0.495 1.1446875 0.495 2.3125 1 C4.99069135 2.17436686 4.99069135 2.17436686 8 2 C8 2.66 8 3.32 8 4 C7.01 4.495 7.01 4.495 6 5 C6 6.32 6 7.64 6 9 C5.01 9.495 5.01 9.495 4 10 C3.67 8.68 3.34 7.36 3 6 C2.34 6 1.68 6 1 6 C0.67 4.02 0.34 2.04 0 0 Z " fill="#1985B7" transform="translate(127,206)"/>
<path d="M0 0 C0 0.66 0 1.32 0 2 C-1.093125 2.12375 -2.18625 2.2475 -3.3125 2.375 C-7.75368615 2.91332559 -12.10652866 3.78221883 -16.484375 4.6953125 C-19.00282632 5.00034232 -20.6133515 4.79183198 -23 4 C-20.79290017 3.34996375 -18.58426108 2.70515255 -16.375 2.0625 C-15.14523438 1.70285156 -13.91546875 1.34320313 -12.6484375 0.97265625 C-3.99940512 -1.33313504 -3.99940512 -1.33313504 0 0 Z " fill="#5FD2D3" transform="translate(182,78)"/>
<path d="M0 0 C2.4375 0.8125 2.4375 0.8125 5 2 C5.33 2.99 5.66 3.98 6 5 C5.67 5.66 5.34 6.32 5 7 C3.02 7 1.04 7 -1 7 C-1.04254356 5.00045254 -1.04080783 2.99958364 -1 1 C-0.67 0.67 -0.34 0.34 0 0 Z " fill="#053A83" transform="translate(424,389)"/>
<path d="M0 0 C0.66 0 1.32 0 2 0 C1.40312566 3.34249629 0.26396123 5.46436342 -2 8 C-2.66 8 -3.32 8 -4 8 C-4.66 9.32 -5.32 10.64 -6 12 C-6.66 10.68 -7.32 9.36 -8 8 C-7.360625 7.7525 -6.72125 7.505 -6.0625 7.25 C-3.81258459 6.18437567 -3.81258459 6.18437567 -3.25 3.875 C-3.1675 3.25625 -3.085 2.6375 -3 2 C-2.01 2 -1.02 2 0 2 C0 1.34 0 0.68 0 0 Z " fill="#1C6C95" transform="translate(332,281)"/>
<path d="M0 0 C2.25 -0.3125 2.25 -0.3125 5 0 C9 4.10810811 9 4.10810811 9 7 C10.32 7.66 11.64 8.32 13 9 C13 9.99 13 10.98 13 12 C10.83035229 10.19096681 8.66421535 8.37801121 6.5 6.5625 C5.87996094 6.04623047 5.25992187 5.52996094 4.62109375 4.99804688 C3.06197284 3.68735732 1.52871719 2.34602708 0 1 C0 0.67 0 0.34 0 0 Z " fill="#42B4D9" transform="translate(283,150)"/>
<path d="M0 0 C0.625 1.875 0.625 1.875 1 4 C-1 6 -1 6 -4 7 C-5.68538601 8.99665314 -5.68538601 8.99665314 -7 11 C-7.93065133 8.39417629 -8.14917407 7.35801776 -7.0625 4.75 C-6.5365625 3.88375 -6.5365625 3.88375 -6 3 C-5.01 3.33 -4.02 3.66 -3 4 C-3 3.34 -3 2.68 -3 2 C-2.01 1.34 -1.02 0.68 0 0 Z " fill="#1069A5" transform="translate(173,202)"/>
<path d="M0 0 C0.99 0.33 1.98 0.66 3 1 C2.9375 2.8125 2.9375 2.8125 2 5 C-1.5625 6.75 -1.5625 6.75 -5 8 C-3.375 2.25 -3.375 2.25 0 0 Z " fill="#2179A5" transform="translate(284,321)"/>
<path d="M0 0 C0.33 0 0.66 0 1 0 C1 1.65 1 3.3 1 5 C5.29 5.66 9.58 6.32 14 7 C14 7.33 14 7.66 14 8 C12.58566794 8.2236337 11.16832382 8.42826476 9.75 8.625 C8.96109375 8.74101562 8.1721875 8.85703125 7.359375 8.9765625 C4.6561152 9.00341607 3.28084387 8.4028199 1 7 C0 6 0 6 -0.0625 2.9375 C-0.041875 1.968125 -0.02125 0.99875 0 0 Z " fill="#0E3C70" transform="translate(216,267)"/>
<path d="M0 0 C2.5 2.25 2.5 2.25 5 5 C5 6.32 5 7.64 5 9 C3.35 8.67 1.7 8.34 0 8 C-0.38063221 5.6739143 -0.71269945 3.33944736 -1 1 C-0.67 0.67 -0.34 0.34 0 0 Z " fill="#044988" transform="translate(321,192)"/>
<path d="M0 0 C2 1.25 2 1.25 4 3 C4 4.32 4 5.64 4 7 C2.02 7.99 2.02 7.99 0 9 C-1.125 7.3125 -1.125 7.3125 -2 5 C-1.125 2.25 -1.125 2.25 0 0 Z " fill="#02397E" transform="translate(301,167)"/>
<path d="M0 0 C2.97 0.495 2.97 0.495 6 1 C3.48617788 2.67588141 1.17052712 3.94030311 -1.5625 5.1875 C-2.34753906 5.55230469 -3.13257813 5.91710937 -3.94140625 6.29296875 C-4.62074219 6.52628906 -5.30007812 6.75960937 -6 7 C-6.66 6.67 -7.32 6.34 -8 6 C-7.34 4.68 -6.68 3.36 -6 2 C-4.35 2.33 -2.7 2.66 -1 3 C-0.67 2.01 -0.34 1.02 0 0 Z " fill="#51C2D1" transform="translate(234,138)"/>
<path d="M0 0 C0.33 0.66 0.66 1.32 1 2 C0.67 2.66 0.34 3.32 0 4 C2.31 4 4.62 4 7 4 C7.33 3.01 7.66 2.02 8 1 C8.66 1 9.32 1 10 1 C8.125 4.875 8.125 4.875 7 6 C4.32941149 6.14115161 1.67567762 6.04247107 -1 6 C-1.33 5.01 -1.66 4.02 -2 3 C-1.34 2.01 -0.68 1.02 0 0 Z " fill="#123B6C" transform="translate(417,399)"/>
<path d="M0 0 C0.33 0.66 0.66 1.32 1 2 C0.67 2.66 0.34 3.32 0 4 C-0.66 4 -1.32 4 -2 4 C-3.42500059 7.99000166 -4.40075776 11.80530429 -5 16 C-5.33 16 -5.66 16 -6 16 C-7.71014816 8.38052802 -7.71014816 8.38052802 -6.0234375 5.1015625 C-4.23252177 2.95455826 -2.5128859 1.25644295 0 0 Z " fill="#074785" transform="translate(284,203)"/>
<path d="M0 0 C2.31 0.66 4.62 1.32 7 2 C6.6875 4.875 6.6875 4.875 6 8 C5.01 8.66 4.02 9.32 3 10 C3.33 8.02 3.66 6.04 4 4 C3.01 4.99 2.02 5.98 1 7 C0.67 4.69 0.34 2.38 0 0 Z " fill="#137CAE" transform="translate(169,192)"/>
<path d="M0 0 C1.546875 0.185625 1.546875 0.185625 3.125 0.375 C5 2.875 5 2.875 6.125 5.375 C5.361875 5.21 4.59875 5.045 3.8125 4.875 C1.08903764 4.28354604 1.08903764 4.28354604 -1.875 4.375 C-2.535 3.385 -3.195 2.395 -3.875 1.375 C-2.875 0.375 -2.875 0.375 0 0 Z " fill="#42DAE0" transform="translate(137.875,90.625)"/>
<path d="M0 0 C0 0.33 0 0.66 0 1 C-2.97 1 -5.94 1 -9 1 C-9 1.66 -9 2.32 -9 3 C-13.33273814 3.92844389 -16.66726186 3.92844389 -21 3 C-21 2.67 -21 2.34 -21 2 C-13.90961228 0.49025965 -7.24997422 -0.28307925 0 0 Z " fill="#65D1D3" transform="translate(214,72)"/>
<path d="M0 0 C0 0.33 0 0.66 0 1 C-1.2375 1 -2.475 1 -3.75 1 C-5.967726 1.15875457 -5.967726 1.15875457 -8 2 C-9.89888271 4.46750418 -10.98543513 7.06977646 -12 10 C-12.66 10 -13.32 10 -14 10 C-11.32271977 0.93843615 -9.26464659 -0.69921861 0 0 Z " fill="#163867" transform="translate(454,357)"/>
<path d="M0 0 C0.66 0.33 1.32 0.66 2 1 C0.15083921 5.06815373 -1.66442368 8.0094833 -5 11 C-4.74445946 9.53890937 -4.46999628 8.08111904 -4.1875 6.625 C-4.03667969 5.81289063 -3.88585937 5.00078125 -3.73046875 4.1640625 C-3 2 -3 2 0 0 Z " fill="#196A9A" transform="translate(340,270)"/>
<path d="M0 0 C1.98 0.99 1.98 0.99 4 2 C3.814375 2.9075 3.62875 3.815 3.4375 4.75 C3.04265379 7.68314324 3.05308428 9.2644657 4 12 C3.01 12.495 3.01 12.495 2 13 C1.66307215 11.39658445 1.33058907 9.79223445 1 8.1875 C0.814375 7.29417969 0.62875 6.40085938 0.4375 5.48046875 C0 3 0 3 0 0 Z " fill="#1990BD" transform="translate(124,185)"/>
<path d="M0 0 C0 3.98919362 -1.17179136 6.46966608 -3 10 C-5.6875 11.9375 -5.6875 11.9375 -8 13 C-6.40956621 7.91061189 -3.2553049 4.12543357 0 0 Z " fill="#044D8A" transform="translate(184,182)"/>
<path d="M0 0 C2.375 0.1875 2.375 0.1875 5 1 C6.3125 3.5625 6.3125 3.5625 7 6 C5.68 6.33 4.36 6.66 3 7 C2.01 4.69 1.02 2.38 0 0 Z " fill="#0772B6" transform="translate(145,249)"/>
<path d="M0 0 C-1.98 0.66 -3.96 1.32 -6 2 C-6 2.66 -6 3.32 -6 4 C-9.3 4 -12.6 4 -16 4 C-13.41588269 2.27725513 -11.45097344 1.31104478 -8.5625 0.3125 C-7.41974609 -0.09548828 -7.41974609 -0.09548828 -6.25390625 -0.51171875 C-3.78170279 -1.04729142 -2.37016716 -0.80445309 0 0 Z " fill="#63CED4" transform="translate(159,84)"/>
<path d="M0 0 C2.5625 2.25 2.5625 2.25 5 5 C4.8125 7.3125 4.8125 7.3125 4 9 C1.525 8.01 1.525 8.01 -1 7 C-0.67 4.69 -0.34 2.38 0 0 Z " fill="#034683" transform="translate(315,183)"/>
<path d="M0 0 C3.3 0 6.6 0 10 0 C10 0.66 10 1.32 10 2 C7.36 2 4.72 2 2 2 C1.67 2.99 1.34 3.98 1 5 C0.67 3.35 0.34 1.7 0 0 Z " fill="#1B396D" transform="translate(416,357)"/>
<path d="M0 0 C0.66 0 1.32 0 2 0 C2.05389087 1.95803507 2.09274217 3.91648909 2.125 5.875 C2.14820313 6.96554688 2.17140625 8.05609375 2.1953125 9.1796875 C2 12 2 12 0 14 C-0.19491452 12.54263913 -0.38069358 11.08405407 -0.5625 9.625 C-0.66691406 8.81289062 -0.77132813 8.00078125 -0.87890625 7.1640625 C-1 5 -1 5 0 3 C0 2.01 0 1.02 0 0 Z " fill="#198AB5" transform="translate(369,202)"/>
<path d="M0 0 C0.66 0 1.32 0 2 0 C2.33 0.99 2.66 1.98 3 3 C1.78515625 5.04296875 1.78515625 5.04296875 0.0625 7.1875 C-0.50339844 7.90292969 -1.06929687 8.61835938 -1.65234375 9.35546875 C-2.09707031 9.89816406 -2.54179687 10.44085938 -3 11 C-3.33 10.01 -3.66 9.02 -4 8 C-3.34 8 -2.68 8 -2 8 C-1.855625 7.236875 -1.71125 6.47375 -1.5625 5.6875 C-1 3 -1 3 0 0 Z " fill="#2E9ECC" transform="translate(179,183)"/>
<path d="M0 0 C-0.96355353 12.66970387 -0.96355353 12.66970387 -2 18 C-2.33 18 -2.66 18 -3 18 C-3 12.39 -3 6.78 -3 1 C-1 0 -1 0 0 0 Z " fill="#338DA9" transform="translate(379,173)"/>
<path d="M0 0 C1.32 0 2.64 0 4 0 C5.60080151 4.00200378 4.29279692 7.04556236 3 11 C2.34 11 1.68 11 1 11 C1.03255208 9.01432292 1.06510417 7.02864583 1.09765625 5.04296875 C1.08263217 2.79694539 1.08263217 2.79694539 0 0 Z " fill="#0975B4" transform="translate(352,240)"/>
<path d="M0 0 C2.475 0.99 2.475 0.99 5 2 C4.67 3.32 4.34 4.64 4 6 C3.34 5.67 2.68 5.34 2 5 C1.01 6.32 0.02 7.64 -1 9 C-0.67 6.03 -0.34 3.06 0 0 Z " fill="#0FB3CA" transform="translate(282,366)"/>
<path d="M0 0 C2.92879371 0.62759865 5.36095629 1.58622659 8 3 C6.68 3.99 5.36 4.98 4 6 C2.68 5.34 1.36 4.68 0 4 C0 2.68 0 1.36 0 0 Z " fill="#1170A7" transform="translate(167,280)"/>
<path d="M0 0 C2.5 1.6875 2.5 1.6875 5 4 C5.3125 6.75 5.3125 6.75 5 9 C0.125 4.375 0.125 4.375 -1 1 C-0.67 0.67 -0.34 0.34 0 0 Z " fill="#1B6895" transform="translate(158,270)"/>
<path d="M0 0 C0.66 0.33 1.32 0.66 2 1 C2 4 2 4 1 7 C0.34 7 -0.32 7 -1 7 C-1.33 7.66 -1.66 8.32 -2 9 C-2.25 3.375 -2.25 3.375 0 0 Z " fill="#056FB2" transform="translate(346,256)"/>
<path d="M0 0 C3 1 3 1 4.203125 3.21484375 C4.54859375 4.11332031 4.8940625 5.01179687 5.25 5.9375 C5.78367188 7.28134766 5.78367188 7.28134766 6.328125 8.65234375 C7 11 7 11 6 13 C4.99491199 11.21118264 3.99607264 9.41885304 3 7.625 C2.1646875 6.12839844 2.1646875 6.12839844 1.3125 4.6015625 C0 2 0 2 0 0 Z " fill="#19719C" transform="translate(141,243)"/>
<path d="M0 0 C0.99 0.33 1.98 0.66 3 1 C1.68 4.96 0.36 8.92 -1 13 C-1.33 13 -1.66 13 -2 13 C-2.23509196 8.18061476 -1.45184478 4.53701494 0 0 Z " fill="#0D70AC" transform="translate(159,229)"/>
<path d="M0 0 C5.875 2.75 5.875 2.75 7 5 C5.02 5.33 3.04 5.66 1 6 C0.4465236 3.92446352 0 2.15634036 0 0 Z " fill="#3EC9E0" transform="translate(266,136)"/>
<path d="M0 0 C2.4294516 3.6441774 2.16179575 5.71241272 2 10 C0.35 9.01 -1.3 8.02 -3 7 C-2.67 6.01 -2.34 5.02 -2 4 C-1.34 4 -0.68 4 0 4 C0 2.68 0 1.36 0 0 Z " fill="#50CCD5" transform="translate(373,96)"/>
<path d="M0 0 C-3.732388 3.57011026 -8.0949989 4.10913442 -13 5 C-12.34 4.34 -11.68 3.68 -11 3 C-10.01 3 -9.02 3 -8 3 C-8 2.34 -8 1.68 -8 1 C-5.07175348 0.02391783 -3.04386724 -0.08226668 0 0 Z " fill="#0D2F67" transform="translate(272,332)"/>
<path d="M0 0 C0.99 0.33 1.98 0.66 3 1 C3 2.65 3 4.3 3 6 C3.66 6.33 4.32 6.66 5 7 C5 8.65 5 10.3 5 12 C2.65085508 9.65085508 2.26859643 8.04320554 1.375 4.875 C1.11460937 3.96492187 0.85421875 3.05484375 0.5859375 2.1171875 C0.39257812 1.41851562 0.19921875 0.71984375 0 0 Z " fill="#19789C" transform="translate(134,227)"/>
<path d="M0 0 C3.53372712 1.96318174 6.24479785 4.04070881 9 7 C6.69 6.67 4.38 6.34 2 6 C2 5.01 2 4.02 2 3 C1.01 3.495 1.01 3.495 0 4 C0 2.68 0 1.36 0 0 Z " fill="#044682" transform="translate(285,153)"/>
<path d="M0 0 C2.29633824 3.44450737 2.54016485 5.93812283 3 10 C1.68 9.34 0.36 8.68 -1 8 C-0.67 5.36 -0.34 2.72 0 0 Z " fill="#29B8D7" transform="translate(301,390)"/>
<path d="M0 0 C0.66 0.66 1.32 1.32 2 2 C0.35 4.64 -1.3 7.28 -3 10 C-3.33 8.68 -3.66 7.36 -4 6 C-3.34 5.67 -2.68 5.34 -2 5 C-2 3.68 -2 2.36 -2 1 C-1.34 0.67 -0.68 0.34 0 0 Z " fill="#092B5A" transform="translate(454,357)"/>
<path d="M0 0 C4.875 1.75 4.875 1.75 6 4 C5.0625 6.125 5.0625 6.125 4 8 C0 2.25 0 2.25 0 0 Z " fill="#13517D" transform="translate(279,149)"/>
<path d="M0 0 C0.66 0.66 1.32 1.32 2 2 C1.625 5.125 1.625 5.125 1 8 C-0.5 6.75 -0.5 6.75 -2 5 C-2 3.68 -2 2.36 -2 1 C-1.34 0.67 -0.68 0.34 0 0 Z " fill="#3DCCDA" transform="translate(125,110)"/>
<path d="M0 0 C0.66 0.99 1.32 1.98 2 3 C1.54625 3.7425 1.0925 4.485 0.625 5.25 C-0.68640796 7.46930578 -1.88280803 9.67967822 -3 12 C-4 10 -4 10 -3.22265625 7.6171875 C-2.83980469 6.71226562 -2.45695312 5.80734375 -2.0625 4.875 C-1.68222656 3.96492188 -1.30195313 3.05484375 -0.91015625 2.1171875 C-0.60980469 1.41851562 -0.30945313 0.71984375 0 0 Z " fill="#2BB6CA" transform="translate(268,386)"/>
<path d="M0 0 C0.66 0.33 1.32 0.66 2 1 C-0.475 5.455 -0.475 5.455 -3 10 C-4.09658936 6.71023192 -3.79953138 5.28696233 -3 2 C-2.01 2 -1.02 2 0 2 C0 1.34 0 0.68 0 0 Z " fill="#09305D" transform="translate(447,369)"/>
<path d="M0 0 C-0.99 1.485 -0.99 1.485 -2 3 C-6.75 2.25 -6.75 2.25 -9 0 C-5.62182575 -0.84454356 -3.32534757 -1.10844919 0 0 Z " fill="#08356F" transform="translate(232,330)"/>
<path d="M0 0 C1.32 0 2.64 0 4 0 C4.66 2.64 5.32 5.28 6 8 C1.125 3.375 1.125 3.375 0 0 Z " fill="#1C6288" transform="translate(163,279)"/>
<path d="M0 0 C-0.33 0.99 -0.66 1.98 -1 3 C-5.455 2.01 -5.455 2.01 -10 1 C-10 0.67 -10 0.34 -10 0 C-6.30458414 -0.95024979 -3.69541586 -0.95024979 0 0 Z " fill="#4FC0D6" transform="translate(268,139)"/>
<path d="M0 0 C0.66 0.33 1.32 0.66 2 1 C0.02 1.99 0.02 1.99 -2 3 C-2 4.32 -2 5.64 -2 7 C-2.99 7 -3.98 7 -5 7 C-4.60196439 4.11424181 -4.20990931 3.17810487 -1.9375 1.25 C-1.298125 0.8375 -0.65875 0.425 0 0 Z " fill="#38C2D4" transform="translate(216,146)"/>
<path d="M0 0 C0.99 0.33 1.98 0.66 3 1 C2.67 3.31 2.34 5.62 2 8 C1.34 7.67 0.68 7.34 0 7 C0 4.69 0 2.38 0 0 Z " fill="#33BBD0" transform="translate(376,129)"/>
<path d="M0 0 C6.52307692 0.61538462 6.52307692 0.61538462 8.9375 2.5625 C9.288125 3.036875 9.63875 3.51125 10 4 C5.78087253 3.5205537 3.20336822 2.83374881 0 0 Z " fill="#0D2C67" transform="translate(230,333)"/>
<path d="M0 0 C1.32 0.66 2.64 1.32 4 2 C4 3.65 4 5.3 4 7 C2.35 5.35 0.7 3.7 -1 2 C-0.67 1.34 -0.34 0.68 0 0 Z " fill="#1172A9" transform="translate(172,286)"/>
<path d="M0 0 C3.63 0.33 7.26 0.66 11 1 C11 1.33 11 1.66 11 2 C9.329375 2.2165625 9.329375 2.2165625 7.625 2.4375 C4.17857953 2.78372035 4.17857953 2.78372035 2 4 C1.34 2.68 0.68 1.36 0 0 Z " fill="#053376" transform="translate(229,275)"/>
<path d="M0 0 C0.33 0 0.66 0 1 0 C1 2.31 1 4.62 1 7 C0.34 7 -0.32 7 -1 7 C-1.33 7.66 -1.66 8.32 -2 9 C-1.125 2.25 -1.125 2.25 0 0 Z " fill="#107BB6" transform="translate(362,227)"/>
<path d="M0 0 C0.33 0 0.66 0 1 0 C1.33 2.31 1.66 4.62 2 7 C1.01 7 0.02 7 -1 7 C-1.33 8.32 -1.66 9.64 -2 11 C-1 3.57142857 -1 3.57142857 0 0 Z " fill="#57C4C9" transform="translate(126,94)"/>
<path d="M0 0 C1.69141656 0.08963062 3.37959602 0.24577676 5.0625 0.4375 C6.44115234 0.59025391 6.44115234 0.59025391 7.84765625 0.74609375 C8.55792969 0.82988281 9.26820313 0.91367188 10 1 C10 1.33 10 1.66 10 2 C8.54364629 2.22174933 7.08477044 2.42698698 5.625 2.625 C4.81289063 2.74101563 4.00078125 2.85703125 3.1640625 2.9765625 C2.44992187 2.98429687 1.73578125 2.99203125 1 3 C0.34 2.34 -0.32 1.68 -1 1 C-0.67 0.67 -0.34 0.34 0 0 Z " fill="#4BE1E3" transform="translate(309,77)"/>
<path d="M0 0 C2.64 0 5.28 0 8 0 C8 0.33 8 0.66 8 1 C5.36 1 2.72 1 0 1 C0 0.67 0 0.34 0 0 Z " fill="#AEB8B5" transform="translate(224,363)"/>
</svg>
